Titillium Math Sans Pro Zanichelli-Italic.ufo
<glyph name="guillemotleft" format="2">
  <advance width="523"/>
  <unicode hex="00AB"/>
  <note>
guillemotleft
</note>
  <outline>
    <contour>
      <point x="228" y="72" type="line"/>
      <point x="277" y="119" type="line"/>
      <point x="117" y="278" type="line"/>
      <point x="336" y="441" type="line"/>
      <point x="299" y="498" type="line"/>
      <point x="61" y="318" type="line"/>
      <point x="47" y="253" type="line"/>
    </contour>
    <contour>
      <point x="241" y="318" type="line"/>
      <point x="227" y="254" type="line"/>
      <point x="405" y="77" type="line"/>
      <point x="453" y="123" type="line"/>
      <point x="296" y="279" type="line"/>
      <point x="511" y="438" type="line"/>
      <point x="475" y="494" type="line"/>
    </contour>
  </outline>
</glyph>
<glyph name="uni00AD" format="2">
  <advance width="0"/>
  <unicode hex="00AD"/>
  <note>
uni00AD
</note>
  <outline>
    <contour>
      <point x="156" y="250" type="line"/>
      <point x="170" y="320" type="line"/>
      <point x="-140" y="320" type="line"/>
      <point x="-154" y="250" type="line"/>
    </contour>
  </outline>
</glyph>
<glyph name="uni0157" format="2">
  <advance width="340"/>
  <unicode hex="0157"/>
  <note>
uni0157
</note>
  <outline>
    <contour>
      <point x="177" y="420" type="curve"/>
      <point x="191" y="500" type="line"/>
      <point x="126" y="500" type="line"/>
      <point x="20" y="0" type="line"/>
      <point x="94" y="0" type="line"/>
      <point x="168" y="352" type="line"/>
      <point x="168" y="352"/>
      <point x="268" y="414"/>
      <point x="364" y="436" type="curve"/>
      <point x="381" y="514" type="line"/>
      <point x="264" y="487"/>
      <point x="177" y="420"/>
    </contour>
    <contour>
      <point x="36" y="-77" type="line"/>
      <point x="-52" y="-221" type="line"/>
      <point x="-8" y="-252" type="line"/>
      <point x="94" y="-120" type="line"/>
    </contour>
  </outline>
</glyph>
<glyph name="uni01D0" format="2">
  <advance width="220"/>
  <unicode hex="01D0"/>
  <note>
uni01D0
</note>
  <outline>
    <contour>
      <point x="363" y="735" type="line"/>
      <point x="281" y="735" type="line"/>
      <point x="187" y="649" type="line"/>
      <point x="131" y="735" type="line"/>
      <point x="63" y="735" type="line"/>
      <point x="147" y="596" type="line"/>
      <point x="219" y="596" type="line"/>
    </contour>
    <contour>
      <point x="126" y="500" type="line"/>
      <point x="19" y="0" type="line"/>
      <point x="94" y="0" type="line"/>
      <point x="200" y="500" type="line"/>
    </contour>
  </outline>
</glyph>
<glyph name="uni01E8" format="2">
  <advance width="560"/>
  <unicode hex="01E8"/>
  <note>
uni01E8
</note>
  <outline>
    <contour>
      <point x="571" y="915" type="line"/>
      <point x="490" y="915" type="line"/>
      <point x="396" y="829" type="line"/>
      <point x="340" y="915" type="line"/>
      <point x="271" y="915" type="line"/>
      <point x="355" y="776" type="line"/>
      <point x="427" y="776" type="line"/>
    </contour>
    <contour>
      <point x="181" y="700" type="line"/>
      <point x="32" y="0" type="line"/>
      <point x="110" y="0" type="line"/>
      <point x="175" y="308" type="line"/>
      <point x="294" y="312" type="line"/>
      <point x="418" y="0" type="line"/>
      <point x="500" y="0" type="line"/>
      <point x="361" y="350" type="line"/>
      <point x="620" y="700" type="line"/>
      <point x="529" y="700" type="line"/>
      <point x="297" y="380" type="line"/>
      <point x="190" y="376" type="line"/>
      <point x="259" y="700" type="line"/>
    </contour>
  </outline>
</glyph>
<glyph name="uni021A" format="2">
  <advance width="515"/>
  <unicode hex="021A"/>
  <note>
uni021A
</note>
  <outline>
    <contour>
      <point x="583" y="630" type="line"/>
      <point x="598" y="700" type="line"/>
      <point x="109" y="700" type="line"/>
      <point x="94" y="630" type="line"/>
      <point x="300" y="630" type="line"/>
      <point x="166" y="0" type="line"/>
      <point x="244" y="0" type="line"/>
      <point x="378" y="630" type="line"/>
    </contour>
    <contour>
      <point x="187" y="-77" type="line"/>
      <point x="99" y="-221" type="line"/>
      <point x="143" y="-252" type="line"/>
      <point x="245" y="-120" type="line"/>
    </contour>
  </outline>
</glyph>
<glyph name="uni0302" format="2">
  <advance width="0"/>
  <unicode hex="0302"/>
  <note>
uni0302
</note>
  <outline>
    <contour>
      <point x="74" y="596" type="line"/>
      <point x="156" y="596" type="line"/>
      <point x="250" y="682" type="line"/>
      <point x="306" y="596" type="line"/>
      <point x="374" y="596" type="line"/>
      <point x="290" y="735" type="line"/>
      <point x="218" y="735" type="line"/>
    </contour>
  </outline>
</glyph>
<glyph name="uni0304" format="2">
  <advance width="0"/>
  <unicode hex="0304"/>
  <note>
uni0304
</note>
  <outline>
    <contour>
      <point x="355" y="624" type="line"/>
      <point x="367" y="683" type="line"/>
      <point x="92" y="683" type="line"/>
      <point x="80" y="624" type="line"/>
    </contour>
  </outline>
</glyph>
<glyph name="uni0307" format="2">
  <advance width="0"/>
  <unicode hex="0307"/>
  <note>
uni0307
</note>
  <outline>
    <contour>
      <point x="153" y="624" type="line"/>
      <point x="173" y="720" type="line"/>
      <point x="100" y="720" type="line"/>
      <point x="79" y="624" type="line"/>
    </contour>
  </outline>
</glyph>
<glyph name="uni0308" format="2">
  <advance width="0"/>
  <unicode hex="0308"/>
  <note>
uni0308
</note>
  <outline>
    <contour>
      <point x="152" y="624" type="line"/>
      <point x="170" y="711" type="line"/>
      <point x="98" y="711" type="line"/>
      <point x="80" y="624" type="line"/>
    </contour>
    <contour>
      <point x="298" y="711" type="line"/>
      <point x="280" y="624" type="line"/>
      <point x="353" y="624" type="line"/>
      <point x="371" y="711" type="line"/>
    </contour>
  </outline>
</glyph>
<glyph name="uni030C" format="2">
  <advance width="0"/>
  <unicode hex="030C"/>
  <note>
uni030C
</note>
  <outline>
    <contour>
      <point x="403" y="735" type="line"/>
      <point x="321" y="735" type="line"/>
      <point x="227" y="649" type="line"/>
      <point x="171" y="735" type="line"/>
      <point x="103" y="735" type="line"/>
      <point x="187" y="596" type="line"/>
      <point x="259" y="596" type="line"/>
    </contour>
  </outline>
</glyph>
<glyph name="uni0312" format="2">
  <advance width="0"/>
  <unicode hex="0312"/>
  <note>
uni0312
</note>
  <outline>
    <contour>
      <point x="192" y="740" type="line"/>
      <point x="81" y="629" type="line"/>
      <point x="134" y="591" type="line"/>
      <point x="229" y="709" type="line"/>
    </contour>
  </outline>
</glyph>
<glyph name="uni0313" format="2">
  <advance width="0"/>
  <unicode hex="0313"/>
  <note>
uni0313
</note>
  <outline>
    <contour>
      <point x="116" y="591" type="line"/>
      <point x="227" y="702" type="line"/>
      <point x="174" y="740" type="line"/>
      <point x="79" y="622" type="line"/>
    </contour>
  </outline>
</glyph>
<glyph name="uni0326" format="2">
  <advance width="0"/>
  <unicode hex="0326"/>
  <note>
uni0326
</note>
  <outline>
    <contour>
      <point x="-56" y="-252" type="line"/>
      <point x="46" y="-120" type="line"/>
      <point x="-12" y="-77" type="line"/>
      <point x="-100" y="-221" type="line"/>
    </contour>
  </outline>
</glyph>
<glyph name="uni0331" format="2">
  <advance width="0"/>
  <unicode hex="0331"/>
  <note>
uni0331
</note>
  <outline>
    <contour>
      <point x="192" y="-141" type="line"/>
      <point x="204" y="-82" type="line"/>
      <point x="-71" y="-82" type="line"/>
      <point x="-83" y="-141" type="line"/>
    </contour>
  </outline>
</glyph>
<glyph name="uni0335" format="2">
  <advance width="0"/>
  <unicode hex="0335"/>
  <note>
uni0335
</note>
  <outline>
    <contour>
      <point x="339" y="584" type="line"/>
      <point x="353" y="648" type="line"/>
      <point x="7" y="648" type="line"/>
      <point x="-7" y="584" type="line"/>
    </contour>
  </outline>
</glyph>
<glyph name="uni0338" format="2">
  <advance width="0"/>
  <unicode hex="0338"/>
  <note>
uni0338
</note>
  <outline>
    <contour>
      <point x="-33" y="-54" type="line"/>
      <point x="516" y="721" type="line"/>
      <point x="470" y="755" type="line"/>
      <point x="-79" y="-20" type="line"/>
    </contour>
  </outline>
</glyph>
<glyph name="uni1E5B" format="2">
  <advance width="340"/>
  <unicode hex="1E5B"/>
  <note>
uni1E5B
</note>
  <outline>
    <contour>
      <point x="177" y="420" type="curve"/>
      <point x="191" y="500" type="line"/>
      <point x="126" y="500" type="line"/>
      <point x="20" y="0" type="line"/>
      <point x="94" y="0" type="line"/>
      <point x="168" y="352" type="line"/>
      <point x="168" y="352"/>
      <point x="268" y="414"/>
      <point x="364" y="436" type="curve"/>
      <point x="381" y="514" type="line"/>
      <point x="264" y="487"/>
      <point x="177" y="420"/>
    </contour>
    <contour>
      <point x="4" y="-82" type="line"/>
      <point x="-17" y="-178" type="line"/>
      <point x="57" y="-178" type="line"/>
      <point x="77" y="-82" type="line"/>
    </contour>
  </outline>
</glyph>
<glyph name="uni1E6C" format="2">
  <advance width="515"/>
  <unicode hex="1E6C"/>
  <note>
uni1E6C
</note>
  <outline>
    <contour>
      <point x="583" y="630" type="line"/>
      <point x="598" y="700" type="line"/>
      <point x="109" y="700" type="line"/>
      <point x="94" y="630" type="line"/>
      <point x="300" y="630" type="line"/>
      <point x="166" y="0" type="line"/>
      <point x="244" y="0" type="line"/>
      <point x="378" y="630" type="line"/>
    </contour>
    <contour>
      <point x="155" y="-82" type="line"/>
      <point x="134" y="-178" type="line"/>
      <point x="208" y="-178" type="line"/>
      <point x="228" y="-82" type="line"/>
    </contour>
  </outline>
</glyph>
<glyph name="uni1E6E" format="2">
  <advance width="515"/>
  <unicode hex="1E6E"/>
  <note>
uni1E6E
</note>
  <outline>
    <contour>
      <point x="583" y="630" type="line"/>
      <point x="598" y="700" type="line"/>
      <point x="109" y="700" type="line"/>
      <point x="94" y="630" type="line"/>
      <point x="300" y="630" type="line"/>
      <point x="166" y="0" type="line"/>
      <point x="244" y="0" type="line"/>
      <point x="378" y="630" type="line"/>
    </contour>
    <contour>
      <point x="58" y="-82" type="line"/>
      <point x="46" y="-141" type="line"/>
      <point x="321" y="-141" type="line"/>
      <point x="333" y="-82" type="line"/>
    </contour>
  </outline>
</glyph>
<glyph name="uni1EA0" format="2">
  <advance width="582"/>
  <unicode hex="1EA0"/>
  <note>
uni1EA0
</note>
  <outline>
    <contour>
      <point x="459" y="700" type="line"/>
      <point x="321" y="700" type="line"/>
      <point x="-30" y="0" type="line"/>
      <point x="47" y="0" type="line"/>
      <point x="139" y="187" type="line"/>
      <point x="416" y="187" type="line"/>
      <point x="427" y="0" type="line"/>
      <point x="501" y="0" type="line"/>
    </contour>
    <contour>
      <point x="187" y="-82" type="line"/>
      <point x="166" y="-178" type="line"/>
      <point x="240" y="-178" type="line"/>
      <point x="260" y="-82" type="line"/>
    </contour>
    <contour>
      <point x="412" y="255" type="line"/>
      <point x="174" y="255" type="line"/>
      <point x="359" y="626" type="line"/>
      <point x="389" y="626" type="line"/>
    </contour>
  </outline>
</glyph>
<glyph name="minute" format="2">
  <advance width="246"/>
  <unicode hex="2032"/>
  <note>
minute
</note>
  <outline>
    <contour>
      <point x="169" y="438" type="line"/>
      <point x="270" y="660" type="line"/>
      <point x="193" y="660" type="line"/>
      <point x="102" y="438" type="line"/>
    </contour>
  </outline>
</glyph>
<glyph name="uni2081" format="2">
  <advance width="211"/>
  <unicode hex="2081"/>
  <note>
uni2081
</note>
  <outline>
    <contour>
      <point x="89" y="-125" type="line"/>
      <point x="156" y="191" type="line"/>
      <point x="96" y="191" type="line"/>
      <point x="-20" y="121" type="line"/>
      <point x="-1" y="74" type="line"/>
      <point x="77" y="121" type="line"/>
      <point x="25" y="-125" type="line"/>
    </contour>
  </outline>
</glyph>
<glyph name="Euro" format="2">
  <advance width="591"/>
  <unicode hex="20AC"/>
  <note>
Euro
</note>
  <outline>
    <contour>
      <point x="159" y="439" type="curve"/>
      <point x="95" y="439" type="line"/>
      <point x="82" y="378" type="line"/>
      <point x="142" y="378" type="line"/>
      <point x="130" y="328" type="line" smooth="yes"/>
      <point x="127" y="312"/>
      <point x="124" y="297"/>
      <point x="122" y="283" type="curve"/>
      <point x="62" y="283" type="line"/>
      <point x="49" y="222" type="line"/>
      <point x="112" y="222" type="line"/>
      <point x="96" y="82"/>
      <point x="148" y="-10"/>
      <point x="301" y="-10" type="curve" smooth="yes"/>
      <point x="364" y="-10"/>
      <point x="438" y="1"/>
      <point x="487" y="11" type="curve"/>
      <point x="497" y="74" type="line"/>
      <point x="451" y="65"/>
      <point x="378" y="56"/>
      <point x="324" y="56" type="curve" smooth="yes"/>
      <point x="206" y="56"/>
      <point x="177" y="110"/>
      <point x="189" y="222" type="curve"/>
      <point x="476" y="222" type="line"/>
      <point x="489" y="283" type="line"/>
      <point x="198" y="283" type="line"/>
      <point x="207" y="328" type="line"/>
      <point x="219" y="378" type="line"/>
      <point x="509" y="378" type="line"/>
      <point x="522" y="439" type="line"/>
      <point x="236" y="439" type="line"/>
      <point x="265" y="561"/>
      <point x="324" y="604"/>
      <point x="439" y="604" type="curve" smooth="yes"/>
      <point x="490" y="604"/>
      <point x="565" y="595"/>
      <point x="606" y="587" type="curve"/>
      <point x="623" y="649" type="line"/>
      <point x="583" y="658"/>
      <point x="513" y="670"/>
      <point x="445" y="670" type="curve" smooth="yes"/>
      <point x="282" y="670"/>
      <point x="199" y="601"/>
    </contour>
  </outline>
</glyph>
<glyph name="uni2116" format="2">
  <advance width="997"/>
  <unicode hex="2116"/>
  <note>
uni2116
</note>
  <outline>
    <contour>
      <point x="422" y="74" type="line"/>
      <point x="336" y="700" type="line"/>
      <point x="181" y="700" type="line"/>
      <point x="32" y="0" type="line"/>
      <point x="110" y="0" type="line"/>
      <point x="243" y="626" type="line"/>
      <point x="272" y="626" type="line"/>
      <point x="358" y="0" type="line"/>
      <point x="513" y="0" type="line"/>
      <point x="662" y="700" type="line"/>
      <point x="584" y="700" type="line"/>
      <point x="451" y="74" type="line"/>
    </contour>
    <contour>
      <point x="692" y="355" type="line"/>
      <point x="680" y="295" type="line"/>
      <point x="933" y="295" type="line"/>
      <point x="945" y="355" type="line"/>
    </contour>
    <contour>
      <point x="716" y="521" type="curve" smooth="yes"/>
      <point x="716" y="454"/>
      <point x="757" y="412"/>
      <point x="831" y="412" type="curve" smooth="yes"/>
      <point x="972" y="412"/>
      <point x="1001" y="538"/>
      <point x="1001" y="609" type="curve" smooth="yes"/>
      <point x="1001" y="675"/>
      <point x="960" y="714"/>
      <point x="887" y="714" type="curve" smooth="yes"/>
      <point x="752" y="714"/>
      <point x="716" y="595"/>
    </contour>
    <contour>
      <point x="786" y="523" type="curve" smooth="yes"/>
      <point x="786" y="577"/>
      <point x="809" y="653"/>
      <point x="879" y="653" type="curve" smooth="yes"/>
      <point x="916" y="653"/>
      <point x="932" y="640"/>
      <point x="932" y="607" type="curve" smooth="yes"/>
      <point x="932" y="561"/>
      <point x="919" y="473"/>
      <point x="840" y="473" type="curve" smooth="yes"/>
      <point x="802" y="473"/>
      <point x="786" y="489"/>
    </contour>
  </outline>
</glyph>
<glyph name="uni2199" format="2">
  <advance width="603"/>
  <unicode hex="2199"/>
  <note>
uni2199
</note>
  <outline>
    <contour>
      <point x="146" y="358" type="line"/>
      <point x="72" y="358" type="line"/>
      <point x="-3" y="1" type="line"/>
      <point x="354" y="0" type="line"/>
      <point x="369" y="72" type="line"/>
      <point x="131" y="70" type="line"/>
      <point x="202" y="126" type="line"/>
      <point x="627" y="476" type="line"/>
      <point x="585" y="530" type="line"/>
      <point x="160" y="180" type="line"/>
      <point x="95" y="124" type="line"/>
    </contour>
  </outline>
</glyph>
<glyph name="uni2460" format="2">
  <advance width="901"/>
  <unicode hex="2460"/>
  <note>
uni2460
</note>
  <outline>
    <contour>
      <point x="401" y="-40" type="curve" smooth="yes"/>
      <point x="659" y="-40"/>
      <point x="878" y="182"/>
      <point x="878" y="418" type="curve" smooth="yes"/>
      <point x="878" y="603"/>
      <point x="742" y="740"/>
      <point x="541" y="740" type="curve" smooth="yes"/>
      <point x="287" y="740"/>
      <point x="67" y="520"/>
      <point x="67" y="281" type="curve" smooth="yes"/>
      <point x="67" y="94"/>
      <point x="201" y="-40"/>
    </contour>
    <contour>
      <point x="142" y="279" type="curve" smooth="yes"/>
      <point x="142" y="478"/>
      <point x="323" y="668"/>
      <point x="541" y="668" type="curve" smooth="yes"/>
      <point x="701" y="668"/>
      <point x="803" y="563"/>
      <point x="803" y="419" type="curve" smooth="yes"/>
      <point x="803" y="221"/>
      <point x="623" y="32"/>
      <point x="406" y="32" type="curve" smooth="yes"/>
      <point x="244" y="32"/>
      <point x="142" y="135"/>
    </contour>
    <contour>
      <point x="498" y="532" type="line"/>
      <point x="371" y="455" type="line"/>
      <point x="392" y="403" type="line"/>
      <point x="477" y="455" type="line"/>
      <point x="420" y="184" type="line"/>
      <point x="491" y="184" type="line"/>
      <point x="564" y="532" type="line"/>
    </contour>
  </outline>
</glyph>
<glyph name="uni2461" format="2">
  <advance width="901"/>
  <unicode hex="2461"/>
  <note>
uni2461
</note>
  <outline>
    <contour>
      <point x="401" y="-40" type="curve" smooth="yes"/>
      <point x="659" y="-40"/>
      <point x="878" y="182"/>
      <point x="878" y="418" type="curve" smooth="yes"/>
      <point x="878" y="603"/>
      <point x="742" y="740"/>
      <point x="541" y="740" type="curve" smooth="yes"/>
      <point x="287" y="740"/>
      <point x="67" y="520"/>
      <point x="67" y="281" type="curve" smooth="yes"/>
      <point x="67" y="94"/>
      <point x="201" y="-40"/>
    </contour>
    <contour>
      <point x="142" y="279" type="curve" smooth="yes"/>
      <point x="142" y="478"/>
      <point x="323" y="668"/>
      <point x="541" y="668" type="curve" smooth="yes"/>
      <point x="701" y="668"/>
      <point x="803" y="563"/>
      <point x="803" y="419" type="curve" smooth="yes"/>
      <point x="803" y="221"/>
      <point x="623" y="32"/>
      <point x="406" y="32" type="curve" smooth="yes"/>
      <point x="244" y="32"/>
      <point x="142" y="135"/>
    </contour>
    <contour>
      <point x="341" y="245" type="line"/>
      <point x="327" y="184" type="line"/>
      <point x="557" y="184" type="line"/>
      <point x="571" y="248" type="line"/>
      <point x="430" y="248" type="line"/>
      <point x="514" y="317" type="line" smooth="yes"/>
      <point x="578" y="370"/>
      <point x="610" y="395"/>
      <point x="610" y="457" type="curve" smooth="yes"/>
      <point x="610" y="512"/>
      <point x="582" y="542"/>
      <point x="519" y="542" type="curve" smooth="yes"/>
      <point x="470" y="542"/>
      <point x="403" y="528"/>
      <point x="403" y="528" type="curve"/>
      <point x="392" y="466" type="line"/>
      <point x="392" y="466"/>
      <point x="456" y="476"/>
      <point x="488" y="476" type="curve" smooth="yes"/>
      <point x="525" y="476"/>
      <point x="534" y="459"/>
      <point x="534" y="437" type="curve" smooth="yes"/>
      <point x="534" y="400"/>
      <point x="490" y="371"/>
      <point x="457" y="344" type="curve" smooth="yes"/>
    </contour>
  </outline>
</glyph>
<glyph name="uni2462" format="2">
  <advance width="901"/>
  <unicode hex="2462"/>
  <note>
uni2462
</note>
  <outline>
    <contour>
      <point x="401" y="-40" type="curve" smooth="yes"/>
      <point x="659" y="-40"/>
      <point x="878" y="182"/>
      <point x="878" y="418" type="curve" smooth="yes"/>
      <point x="878" y="603"/>
      <point x="742" y="740"/>
      <point x="541" y="740" type="curve" smooth="yes"/>
      <point x="287" y="740"/>
      <point x="67" y="520"/>
      <point x="67" y="281" type="curve" smooth="yes"/>
      <point x="67" y="94"/>
      <point x="201" y="-40"/>
    </contour>
    <contour>
      <point x="142" y="279" type="curve" smooth="yes"/>
      <point x="142" y="478"/>
      <point x="323" y="668"/>
      <point x="541" y="668" type="curve" smooth="yes"/>
      <point x="701" y="668"/>
      <point x="803" y="563"/>
      <point x="803" y="419" type="curve" smooth="yes"/>
      <point x="803" y="221"/>
      <point x="623" y="32"/>
      <point x="406" y="32" type="curve" smooth="yes"/>
      <point x="244" y="32"/>
      <point x="142" y="135"/>
    </contour>
    <contour>
      <point x="332" y="242" type="curve"/>
      <point x="314" y="180" type="line"/>
      <point x="314" y="180"/>
      <point x="382" y="169"/>
      <point x="436" y="169" type="curve" smooth="yes"/>
      <point x="540" y="169"/>
      <point x="581" y="233"/>
      <point x="581" y="294" type="curve" smooth="yes"/>
      <point x="581" y="336"/>
      <point x="565" y="354"/>
      <point x="542" y="365" type="curve"/>
      <point x="579" y="385"/>
      <point x="602" y="413"/>
      <point x="602" y="456" type="curve" smooth="yes"/>
      <point x="602" y="509"/>
      <point x="573" y="538"/>
      <point x="506" y="538" type="curve" smooth="yes"/>
      <point x="458" y="538"/>
      <point x="391" y="527"/>
      <point x="391" y="527" type="curve"/>
      <point x="383" y="466" type="line"/>
      <point x="383" y="466"/>
      <point x="438" y="474"/>
      <point x="486" y="474" type="curve" smooth="yes"/>
      <point x="515" y="474"/>
      <point x="529" y="464"/>
      <point x="529" y="442" type="curve" smooth="yes"/>
      <point x="529" y="404"/>
      <point x="498" y="388"/>
      <point x="476" y="388" type="curve" smooth="yes"/>
      <point x="404" y="388" type="line"/>
      <point x="391" y="330" type="line"/>
      <point x="463" y="330" type="line" smooth="yes"/>
      <point x="497" y="330"/>
      <point x="507" y="318"/>
      <point x="507" y="290" type="curve" smooth="yes"/>
      <point x="507" y="255"/>
      <point x="485" y="233"/>
      <point x="440" y="233" type="curve" smooth="yes"/>
      <point x="392" y="233"/>
      <point x="332" y="242"/>
    </contour>
  </outline>
</glyph>
<glyph name="uni2463" format="2">
  <advance width="901"/>
  <unicode hex="2463"/>
  <note>
uni2463
</note>
  <outline>
    <contour>
      <point x="401" y="-40" type="curve" smooth="yes"/>
      <point x="659" y="-40"/>
      <point x="878" y="182"/>
      <point x="878" y="418" type="curve" smooth="yes"/>
      <point x="878" y="603"/>
      <point x="742" y="740"/>
      <point x="541" y="740" type="curve" smooth="yes"/>
      <point x="287" y="740"/>
      <point x="67" y="520"/>
      <point x="67" y="281" type="curve" smooth="yes"/>
      <point x="67" y="94"/>
      <point x="201" y="-40"/>
    </contour>
    <contour>
      <point x="142" y="279" type="curve" smooth="yes"/>
      <point x="142" y="478"/>
      <point x="323" y="668"/>
      <point x="541" y="668" type="curve" smooth="yes"/>
      <point x="701" y="668"/>
      <point x="803" y="563"/>
      <point x="803" y="419" type="curve" smooth="yes"/>
      <point x="803" y="221"/>
      <point x="623" y="32"/>
      <point x="406" y="32" type="curve" smooth="yes"/>
      <point x="244" y="32"/>
      <point x="142" y="135"/>
    </contour>
    <contour>
      <point x="327" y="298" type="line"/>
      <point x="315" y="239" type="line"/>
      <point x="470" y="239" type="line"/>
      <point x="458" y="184" type="line"/>
      <point x="527" y="184" type="line"/>
      <point x="539" y="239" type="line"/>
      <point x="569" y="239" type="line"/>
      <point x="582" y="303" type="line"/>
      <point x="553" y="303" type="line"/>
      <point x="574" y="403" type="line"/>
      <point x="510" y="403" type="line"/>
      <point x="483" y="303" type="line"/>
      <point x="401" y="303" type="line"/>
      <point x="539" y="532" type="line"/>
      <point x="459" y="532" type="line"/>
    </contour>
  </outline>
</glyph>
<glyph name="uni2468" format="2">
  <advance width="901"/>
  <unicode hex="2468"/>
  <note>
uni2468
</note>
  <outline>
    <contour>
      <point x="401" y="-40" type="curve" smooth="yes"/>
      <point x="659" y="-40"/>
      <point x="878" y="182"/>
      <point x="878" y="418" type="curve" smooth="yes"/>
      <point x="878" y="603"/>
      <point x="742" y="740"/>
      <point x="541" y="740" type="curve" smooth="yes"/>
      <point x="287" y="740"/>
      <point x="67" y="520"/>
      <point x="67" y="281" type="curve" smooth="yes"/>
      <point x="67" y="94"/>
      <point x="201" y="-40"/>
    </contour>
    <contour>
      <point x="142" y="279" type="curve" smooth="yes"/>
      <point x="142" y="478"/>
      <point x="323" y="668"/>
      <point x="541" y="668" type="curve" smooth="yes"/>
      <point x="701" y="668"/>
      <point x="803" y="563"/>
      <point x="803" y="419" type="curve" smooth="yes"/>
      <point x="803" y="221"/>
      <point x="623" y="32"/>
      <point x="406" y="32" type="curve" smooth="yes"/>
      <point x="244" y="32"/>
      <point x="142" y="135"/>
    </contour>
    <contour>
      <point x="344" y="241" type="curve"/>
      <point x="327" y="182" type="line"/>
      <point x="327" y="182"/>
      <point x="388" y="169"/>
      <point x="433" y="169" type="curve" smooth="yes"/>
      <point x="587" y="169"/>
      <point x="609" y="332"/>
      <point x="609" y="411" type="curve" smooth="yes"/>
      <point x="609" y="494"/>
      <point x="567" y="538"/>
      <point x="495" y="538" type="curve" smooth="yes"/>
      <point x="400" y="538"/>
      <point x="359" y="464"/>
      <point x="359" y="391" type="curve" smooth="yes"/>
      <point x="359" y="340"/>
      <point x="392" y="302"/>
      <point x="451" y="302" type="curve" smooth="yes"/>
      <point x="482" y="302"/>
      <point x="520" y="316"/>
      <point x="520" y="315" type="curve" smooth="yes"/>
      <point x="509" y="260"/>
      <point x="491" y="232"/>
      <point x="441" y="232" type="curve" smooth="yes"/>
      <point x="400" y="232"/>
      <point x="344" y="241"/>
    </contour>
    <contour>
      <point x="431" y="402" type="curve" smooth="yes"/>
      <point x="431" y="434"/>
      <point x="447" y="475"/>
      <point x="493" y="475" type="curve" smooth="yes"/>
      <point x="523" y="475"/>
      <point x="540" y="458"/>
      <point x="540" y="423" type="curve" smooth="yes"/>
      <point x="540" y="410"/>
      <point x="538" y="393"/>
      <point x="535" y="375" type="curve"/>
      <point x="535" y="375"/>
      <point x="497" y="359"/>
      <point x="472" y="359" type="curve" smooth="yes"/>
      <point x="446" y="359"/>
      <point x="431" y="377"/>
    </contour>
  </outline>
</glyph>
<glyph name="uni24EA" format="2">
  <advance width="901"/>
  <unicode hex="24EA"/>
  <note>
uni24EA
</note>
  <outline>
    <contour>
      <point x="401" y="-40" type="curve" smooth="yes"/>
      <point x="659" y="-40"/>
      <point x="878" y="182"/>
      <point x="878" y="418" type="curve" smooth="yes"/>
      <point x="878" y="603"/>
      <point x="742" y="740"/>
      <point x="541" y="740" type="curve" smooth="yes"/>
      <point x="287" y="740"/>
      <point x="67" y="520"/>
      <point x="67" y="281" type="curve" smooth="yes"/>
      <point x="67" y="94"/>
      <point x="201" y="-40"/>
    </contour>
    <contour>
      <point x="142" y="279" type="curve" smooth="yes"/>
      <point x="142" y="478"/>
      <point x="323" y="668"/>
      <point x="541" y="668" type="curve" smooth="yes"/>
      <point x="701" y="668"/>
      <point x="803" y="563"/>
      <point x="803" y="419" type="curve" smooth="yes"/>
      <point x="803" y="221"/>
      <point x="623" y="32"/>
      <point x="406" y="32" type="curve" smooth="yes"/>
      <point x="244" y="32"/>
      <point x="142" y="135"/>
    </contour>
    <contour>
      <point x="333" y="278" type="curve" smooth="yes"/>
      <point x="333" y="201"/>
      <point x="377" y="169"/>
      <point x="441" y="169" type="curve" smooth="yes"/>
      <point x="579" y="169"/>
      <point x="614" y="352"/>
      <point x="614" y="429" type="curve" smooth="yes"/>
      <point x="614" y="505"/>
      <point x="571" y="538"/>
      <point x="506" y="538" type="curve" smooth="yes"/>
      <point x="372" y="538"/>
      <point x="333" y="363"/>
    </contour>
    <contour>
      <point x="406" y="286" type="curve" smooth="yes"/>
      <point x="406" y="333"/>
      <point x="437" y="474"/>
      <point x="498" y="474" type="curve" smooth="yes"/>
      <point x="527" y="474"/>
      <point x="541" y="459"/>
      <point x="541" y="422" type="curve" smooth="yes"/>
      <point x="541" y="378"/>
      <point x="510" y="233"/>
      <point x="449" y="233" type="curve" smooth="yes"/>
      <point x="422" y="233"/>
      <point x="406" y="245"/>
    </contour>
  </outline>
</glyph>
<glyph name="uni24FF" format="2">
  <advance width="901"/>
  <unicode hex="24FF"/>
  <note>
uni24FF
</note>
  <outline>
    <contour>
      <point x="506" y="538" type="curve" smooth="yes"/>
      <point x="372" y="538"/>
      <point x="333" y="363"/>
      <point x="333" y="278" type="curve" smooth="yes"/>
      <point x="333" y="201"/>
      <point x="377" y="169"/>
      <point x="441" y="169" type="curve" smooth="yes"/>
      <point x="579" y="169"/>
      <point x="614" y="352"/>
      <point x="614" y="429" type="curve" smooth="yes"/>
      <point x="614" y="505"/>
      <point x="571" y="538"/>
    </contour>
    <contour>
      <point x="67" y="281" type="curve" smooth="yes"/>
      <point x="67" y="520"/>
      <point x="287" y="740"/>
      <point x="541" y="740" type="curve" smooth="yes"/>
      <point x="742" y="740"/>
      <point x="878" y="603"/>
      <point x="878" y="418" type="curve" smooth="yes"/>
      <point x="878" y="182"/>
      <point x="659" y="-40"/>
      <point x="401" y="-40" type="curve" smooth="yes"/>
      <point x="201" y="-40"/>
      <point x="67" y="94"/>
    </contour>
    <contour>
      <point x="406" y="286" type="curve" smooth="yes"/>
      <point x="406" y="333"/>
      <point x="437" y="474"/>
      <point x="498" y="474" type="curve" smooth="yes"/>
      <point x="527" y="474"/>
      <point x="541" y="459"/>
      <point x="541" y="422" type="curve" smooth="yes"/>
      <point x="541" y="378"/>
      <point x="510" y="233"/>
      <point x="449" y="233" type="curve" smooth="yes"/>
      <point x="422" y="233"/>
      <point x="406" y="245"/>
    </contour>
  </outline>
</glyph>
<glyph name="uni2776" format="2">
  <advance width="901"/>
  <unicode hex="2776"/>
  <note>
uni2776
</note>
  <outline>
    <contour>
      <point x="491" y="184" type="line"/>
      <point x="564" y="532" type="line"/>
      <point x="498" y="532" type="line"/>
      <point x="371" y="455" type="line"/>
      <point x="392" y="403" type="line"/>
      <point x="477" y="455" type="line"/>
      <point x="420" y="184" type="line"/>
    </contour>
    <contour>
      <point x="67" y="281" type="curve" smooth="yes"/>
      <point x="67" y="520"/>
      <point x="287" y="740"/>
      <point x="541" y="740" type="curve" smooth="yes"/>
      <point x="742" y="740"/>
      <point x="878" y="603"/>
      <point x="878" y="418" type="curve" smooth="yes"/>
      <point x="878" y="182"/>
      <point x="659" y="-40"/>
      <point x="401" y="-40" type="curve" smooth="yes"/>
      <point x="201" y="-40"/>
      <point x="67" y="94"/>
    </contour>
  </outline>
</glyph>
<glyph name="uni2777" format="2">
  <advance width="901"/>
  <unicode hex="2777"/>
  <note>
uni2777
</note>
  <outline>
    <contour>
      <point x="457" y="344" type="curve" smooth="yes"/>
      <point x="341" y="245" type="line"/>
      <point x="327" y="184" type="line"/>
      <point x="557" y="184" type="line"/>
      <point x="571" y="248" type="line"/>
      <point x="430" y="248" type="line"/>
      <point x="514" y="317" type="line" smooth="yes"/>
      <point x="578" y="370"/>
      <point x="610" y="395"/>
      <point x="610" y="457" type="curve" smooth="yes"/>
      <point x="610" y="512"/>
      <point x="582" y="542"/>
      <point x="519" y="542" type="curve" smooth="yes"/>
      <point x="470" y="542"/>
      <point x="403" y="528"/>
      <point x="403" y="528" type="curve"/>
      <point x="392" y="466" type="line"/>
      <point x="392" y="466"/>
      <point x="456" y="476"/>
      <point x="488" y="476" type="curve" smooth="yes"/>
      <point x="525" y="476"/>
      <point x="534" y="459"/>
      <point x="534" y="437" type="curve" smooth="yes"/>
      <point x="534" y="400"/>
      <point x="490" y="371"/>
    </contour>
    <contour>
      <point x="67" y="281" type="curve" smooth="yes"/>
      <point x="67" y="520"/>
      <point x="287" y="740"/>
      <point x="541" y="740" type="curve" smooth="yes"/>
      <point x="742" y="740"/>
      <point x="878" y="603"/>
      <point x="878" y="418" type="curve" smooth="yes"/>
      <point x="878" y="182"/>
      <point x="659" y="-40"/>
      <point x="401" y="-40" type="curve" smooth="yes"/>
      <point x="201" y="-40"/>
      <point x="67" y="94"/>
    </contour>
  </outline>
</glyph>
<glyph name="uni2779" format="2">
  <advance width="901"/>
  <unicode hex="2779"/>
  <note>
uni2779
</note>
  <outline>
    <contour>
      <point x="327" y="298" type="line"/>
      <point x="315" y="239" type="line"/>
      <point x="470" y="239" type="line"/>
      <point x="458" y="184" type="line"/>
      <point x="527" y="184" type="line"/>
      <point x="539" y="239" type="line"/>
      <point x="569" y="239" type="line"/>
      <point x="582" y="303" type="line"/>
      <point x="553" y="303" type="line"/>
      <point x="574" y="403" type="line"/>
      <point x="510" y="403" type="line"/>
      <point x="483" y="303" type="line"/>
      <point x="401" y="303" type="line"/>
      <point x="539" y="532" type="line"/>
      <point x="459" y="532" type="line"/>
    </contour>
    <contour>
      <point x="67" y="281" type="curve" smooth="yes"/>
      <point x="67" y="520"/>
      <point x="287" y="740"/>
      <point x="541" y="740" type="curve" smooth="yes"/>
      <point x="742" y="740"/>
      <point x="878" y="603"/>
      <point x="878" y="418" type="curve" smooth="yes"/>
      <point x="878" y="182"/>
      <point x="659" y="-40"/>
      <point x="401" y="-40" type="curve" smooth="yes"/>
      <point x="201" y="-40"/>
      <point x="67" y="94"/>
    </contour>
  </outline>
</glyph>
<glyph name="uni277A" format="2">
  <advance width="901"/>
  <unicode hex="277A"/>
  <note>
uni277A
</note>
  <outline>
    <contour>
      <point x="451" y="466" type="line"/>
      <point x="600" y="466" type="line"/>
      <point x="614" y="528" type="line"/>
      <point x="408" y="528" type="line"/>
      <point x="355" y="332" type="line"/>
      <point x="409" y="325" type="line"/>
      <point x="409" y="325"/>
      <point x="438" y="342"/>
      <point x="469" y="342" type="curve" smooth="yes"/>
      <point x="495" y="342"/>
      <point x="511" y="326"/>
      <point x="511" y="298" type="curve" smooth="yes"/>
      <point x="511" y="250"/>
      <point x="485" y="231"/>
      <point x="430" y="231" type="curve" smooth="yes"/>
      <point x="396" y="231"/>
      <point x="335" y="241"/>
      <point x="335" y="241" type="curve"/>
      <point x="318" y="183" type="line"/>
      <point x="318" y="183"/>
      <point x="378" y="169"/>
      <point x="427" y="169" type="curve" smooth="yes"/>
      <point x="538" y="169"/>
      <point x="585" y="236"/>
      <point x="585" y="315" type="curve" smooth="yes"/>
      <point x="585" y="373"/>
      <point x="545" y="402"/>
      <point x="496" y="402" type="curve" smooth="yes"/>
      <point x="456" y="402"/>
      <point x="425" y="386"/>
      <point x="425" y="386" type="curve"/>
    </contour>
    <contour>
      <point x="67" y="281" type="curve" smooth="yes"/>
      <point x="67" y="520"/>
      <point x="287" y="740"/>
      <point x="541" y="740" type="curve" smooth="yes"/>
      <point x="742" y="740"/>
      <point x="878" y="603"/>
      <point x="878" y="418" type="curve" smooth="yes"/>
      <point x="878" y="182"/>
      <point x="659" y="-40"/>
      <point x="401" y="-40" type="curve" smooth="yes"/>
      <point x="201" y="-40"/>
      <point x="67" y="94"/>
    </contour>
  </outline>
</glyph>
<glyph name="uni277B" format="2">
  <advance width="901"/>
  <unicode hex="277B"/>
  <note>
uni277B
</note>
  <outline>
    <contour>
      <point x="592" y="467" type="curve"/>
      <point x="609" y="527" type="line"/>
      <point x="609" y="527"/>
      <point x="553" y="538"/>
      <point x="512" y="538" type="curve" smooth="yes"/>
      <point x="369" y="538"/>
      <point x="329" y="400"/>
      <point x="329" y="289" type="curve" smooth="yes"/>
      <point x="329" y="214"/>
      <point x="373" y="169"/>
      <point x="443" y="169" type="curve" smooth="yes"/>
      <point x="531" y="169"/>
      <point x="579" y="239"/>
      <point x="579" y="323" type="curve" smooth="yes"/>
      <point x="579" y="373"/>
      <point x="551" y="409"/>
      <point x="487" y="409" type="curve" smooth="yes"/>
      <point x="449" y="409"/>
      <point x="416" y="392"/>
      <point x="417" y="393" type="curve"/>
      <point x="430" y="450"/>
      <point x="456" y="475"/>
      <point x="501" y="475" type="curve" smooth="yes"/>
      <point x="538" y="475"/>
      <point x="592" y="467"/>
    </contour>
    <contour>
      <point x="67" y="281" type="curve" smooth="yes"/>
      <point x="67" y="520"/>
      <point x="287" y="740"/>
      <point x="541" y="740" type="curve" smooth="yes"/>
      <point x="742" y="740"/>
      <point x="878" y="603"/>
      <point x="878" y="418" type="curve" smooth="yes"/>
      <point x="878" y="182"/>
      <point x="659" y="-40"/>
      <point x="401" y="-40" type="curve" smooth="yes"/>
      <point x="201" y="-40"/>
      <point x="67" y="94"/>
    </contour>
    <contour>
      <point x="399" y="285" type="curve" smooth="yes"/>
      <point x="399" y="297"/>
      <point x="401" y="314"/>
      <point x="403" y="331" type="curve"/>
      <point x="404" y="332"/>
      <point x="435" y="349"/>
      <point x="465" y="349" type="curve" smooth="yes"/>
      <point x="492" y="349"/>
      <point x="507" y="337"/>
      <point x="507" y="311" type="curve" smooth="yes"/>
      <point x="507" y="268"/>
      <point x="491" y="232"/>
      <point x="445" y="232" type="curve" smooth="yes"/>
      <point x="416" y="232"/>
      <point x="399" y="250"/>
    </contour>
  </outline>
</glyph>
<glyph name="uni277C" format="2">
  <advance width="901"/>
  <unicode hex="277C"/>
  <note>
uni277C
</note>
  <outline>
    <contour>
      <point x="599" y="448" type="line"/>
      <point x="617" y="532" type="line"/>
      <point x="390" y="532" type="line"/>
      <point x="376" y="463" type="line"/>
      <point x="523" y="463" type="line"/>
      <point x="518" y="441" type="line"/>
      <point x="353" y="188" type="line"/>
      <point x="419" y="163" type="line"/>
    </contour>
    <contour>
      <point x="67" y="281" type="curve" smooth="yes"/>
      <point x="67" y="520"/>
      <point x="287" y="740"/>
      <point x="541" y="740" type="curve" smooth="yes"/>
      <point x="742" y="740"/>
      <point x="878" y="603"/>
      <point x="878" y="418" type="curve" smooth="yes"/>
      <point x="878" y="182"/>
      <point x="659" y="-40"/>
      <point x="401" y="-40" type="curve" smooth="yes"/>
      <point x="201" y="-40"/>
      <point x="67" y="94"/>
    </contour>
  </outline>
</glyph>
<glyph name="uni277D" format="2">
  <advance width="901"/>
  <unicode hex="277D"/>
  <note>
uni277D
</note>
  <outline>
    <contour>
      <point x="502" y="538" type="curve" smooth="yes"/>
      <point x="420" y="538"/>
      <point x="364" y="501"/>
      <point x="364" y="424" type="curve" smooth="yes"/>
      <point x="364" y="392"/>
      <point x="380" y="374"/>
      <point x="397" y="365" type="curve"/>
      <point x="336" y="341"/>
      <point x="322" y="292"/>
      <point x="322" y="256" type="curve" smooth="yes"/>
      <point x="322" y="200"/>
      <point x="364" y="169"/>
      <point x="442" y="169" type="curve" smooth="yes"/>
      <point x="526" y="169"/>
      <point x="591" y="211"/>
      <point x="591" y="297" type="curve" smooth="yes"/>
      <point x="591" y="331"/>
      <point x="571" y="357"/>
      <point x="551" y="364" type="curve"/>
      <point x="585" y="374"/>
      <point x="614" y="407"/>
      <point x="614" y="450" type="curve" smooth="yes"/>
      <point x="614" y="505"/>
      <point x="583" y="538"/>
    </contour>
    <contour>
      <point x="67" y="281" type="curve" smooth="yes"/>
      <point x="67" y="520"/>
      <point x="287" y="740"/>
      <point x="541" y="740" type="curve" smooth="yes"/>
      <point x="742" y="740"/>
      <point x="878" y="603"/>
      <point x="878" y="418" type="curve" smooth="yes"/>
      <point x="878" y="182"/>
      <point x="659" y="-40"/>
      <point x="401" y="-40" type="curve" smooth="yes"/>
      <point x="201" y="-40"/>
      <point x="67" y="94"/>
    </contour>
    <contour>
      <point x="396" y="267" type="curve" smooth="yes"/>
      <point x="396" y="298"/>
      <point x="413" y="322"/>
      <point x="447" y="335" type="curve"/>
      <point x="488" y="335" type="line"/>
      <point x="506" y="327"/>
      <point x="516" y="315"/>
      <point x="516" y="296" type="curve" smooth="yes"/>
      <point x="516" y="255"/>
      <point x="488" y="228"/>
      <point x="448" y="228" type="curve" smooth="yes"/>
      <point x="416" y="228"/>
      <point x="396" y="244"/>
    </contour>
    <contour>
      <point x="433" y="428" type="curve" smooth="yes"/>
      <point x="433" y="462"/>
      <point x="457" y="478"/>
      <point x="496" y="478" type="curve" smooth="yes"/>
      <point x="534" y="478"/>
      <point x="546" y="463"/>
      <point x="546" y="443" type="curve" smooth="yes"/>
      <point x="546" y="415"/>
      <point x="528" y="400"/>
      <point x="501" y="389" type="curve"/>
      <point x="459" y="389" type="line"/>
      <point x="443" y="397"/>
      <point x="433" y="409"/>
    </contour>
  </outline>
</glyph>
<glyph name="uni277E" format="2">
  <advance width="901"/>
  <unicode hex="277E"/>
  <note>
uni277E
</note>
  <outline>
    <contour>
      <point x="344" y="241" type="curve"/>
      <point x="327" y="182" type="line"/>
      <point x="327" y="182"/>
      <point x="388" y="169"/>
      <point x="433" y="169" type="curve" smooth="yes"/>
      <point x="587" y="169"/>
      <point x="609" y="332"/>
      <point x="609" y="411" type="curve" smooth="yes"/>
      <point x="609" y="494"/>
      <point x="567" y="538"/>
      <point x="495" y="538" type="curve" smooth="yes"/>
      <point x="400" y="538"/>
      <point x="359" y="464"/>
      <point x="359" y="391" type="curve" smooth="yes"/>
      <point x="359" y="340"/>
      <point x="392" y="302"/>
      <point x="451" y="302" type="curve" smooth="yes"/>
      <point x="482" y="302"/>
      <point x="520" y="316"/>
      <point x="520" y="315" type="curve" smooth="yes"/>
      <point x="509" y="260"/>
      <point x="491" y="232"/>
      <point x="441" y="232" type="curve" smooth="yes"/>
      <point x="400" y="232"/>
      <point x="344" y="241"/>
    </contour>
    <contour>
      <point x="67" y="281" type="curve" smooth="yes"/>
      <point x="67" y="520"/>
      <point x="287" y="740"/>
      <point x="541" y="740" type="curve" smooth="yes"/>
      <point x="742" y="740"/>
      <point x="878" y="603"/>
      <point x="878" y="418" type="curve" smooth="yes"/>
      <point x="878" y="182"/>
      <point x="659" y="-40"/>
      <point x="401" y="-40" type="curve" smooth="yes"/>
      <point x="201" y="-40"/>
      <point x="67" y="94"/>
    </contour>
    <contour>
      <point x="431" y="402" type="curve" smooth="yes"/>
      <point x="431" y="434"/>
      <point x="447" y="475"/>
      <point x="493" y="475" type="curve" smooth="yes"/>
      <point x="523" y="475"/>
      <point x="540" y="458"/>
      <point x="540" y="423" type="curve" smooth="yes"/>
      <point x="540" y="410"/>
      <point x="538" y="393"/>
      <point x="535" y="375" type="curve"/>
      <point x="535" y="375"/>
      <point x="497" y="359"/>
      <point x="472" y="359" type="curve" smooth="yes"/>
      <point x="446" y="359"/>
      <point x="431" y="377"/>
    </contour>
  </outline>
</glyph>
<glyph name="A.ss03" format="2">
  <advance width="1269"/>
  <note>
A.ss03
</note>
  <outline>
    <contour>
      <point x="537" y="-271" type="curve" smooth="yes"/>
      <point x="972" y="-271"/>
      <point x="1273" y="86"/>
      <point x="1273" y="453" type="curve" smooth="yes"/>
      <point x="1273" y="750"/>
      <point x="1072" y="938"/>
      <point x="766" y="938" type="curve" smooth="yes"/>
      <point x="331" y="938"/>
      <point x="31" y="581"/>
      <point x="31" y="212" type="curve" smooth="yes"/>
      <point x="31" y="-83"/>
      <point x="231" y="-271"/>
    </contour>
    <contour>
      <point x="105" y="211" type="curve" smooth="yes"/>
      <point x="105" y="540"/>
      <point x="375" y="868"/>
      <point x="763" y="868" type="curve" smooth="yes"/>
      <point x="1034" y="868"/>
      <point x="1198" y="710"/>
      <point x="1198" y="453" type="curve" smooth="yes"/>
      <point x="1198" y="136"/>
      <point x="937" y="-201"/>
      <point x="540" y="-201" type="curve" smooth="yes"/>
      <point x="269" y="-201"/>
      <point x="105" y="-44"/>
    </contour>
    <contour>
      <point x="656" y="700" type="line"/>
      <point x="305" y="0" type="line"/>
      <point x="382" y="0" type="line"/>
      <point x="474" y="187" type="line"/>
      <point x="751" y="187" type="line"/>
      <point x="762" y="0" type="line"/>
      <point x="836" y="0" type="line"/>
      <point x="794" y="700" type="line"/>
    </contour>
    <contour>
      <point x="747" y="255" type="line"/>
      <point x="509" y="255" type="line"/>
      <point x="694" y="626" type="line"/>
      <point x="724" y="626" type="line"/>
    </contour>
  </outline>
</glyph>
<glyph name="A.ss04" format="2">
  <advance width="1266"/>
  <note>
A.ss04
</note>
  <outline>
    <contour>
      <point x="526" y="-271" type="curve" smooth="yes"/>
      <point x="227" y="-271"/>
      <point x="30" y="-86"/>
      <point x="30" y="207" type="curve" smooth="yes"/>
      <point x="30" y="580"/>
      <point x="347" y="938"/>
      <point x="773" y="938" type="curve" smooth="yes"/>
      <point x="1078" y="938"/>
      <point x="1272" y="747"/>
      <point x="1272" y="459" type="curve" smooth="yes"/>
      <point x="1272" y="85"/>
      <point x="948" y="-271"/>
    </contour>
    <contour>
      <point x="656" y="700" type="line"/>
      <point x="305" y="0" type="line"/>
      <point x="382" y="0" type="line"/>
      <point x="474" y="187" type="line"/>
      <point x="751" y="187" type="line"/>
      <point x="762" y="0" type="line"/>
      <point x="836" y="0" type="line"/>
      <point x="794" y="700" type="line"/>
    </contour>
    <contour>
      <point x="747" y="255" type="line"/>
      <point x="509" y="255" type="line"/>
      <point x="694" y="626" type="line"/>
      <point x="724" y="626" type="line"/>
    </contour>
  </outline>
</glyph>
<glyph name="B.ss03" format="2">
  <advance width="1269"/>
  <note>
B.ss03
</note>
  <outline>
    <contour>
      <point x="537" y="-271" type="curve" smooth="yes"/>
      <point x="972" y="-271"/>
      <point x="1273" y="86"/>
      <point x="1273" y="453" type="curve" smooth="yes"/>
      <point x="1273" y="750"/>
      <point x="1072" y="938"/>
      <point x="766" y="938" type="curve" smooth="yes"/>
      <point x="331" y="938"/>
      <point x="31" y="581"/>
      <point x="31" y="212" type="curve" smooth="yes"/>
      <point x="31" y="-83"/>
      <point x="231" y="-271"/>
    </contour>
    <contour>
      <point x="105" y="211" type="curve" smooth="yes"/>
      <point x="105" y="540"/>
      <point x="375" y="868"/>
      <point x="763" y="868" type="curve" smooth="yes"/>
      <point x="1034" y="868"/>
      <point x="1198" y="710"/>
      <point x="1198" y="453" type="curve" smooth="yes"/>
      <point x="1198" y="136"/>
      <point x="937" y="-201"/>
      <point x="540" y="-201" type="curve" smooth="yes"/>
      <point x="269" y="-201"/>
      <point x="105" y="-44"/>
    </contour>
    <contour>
      <point x="521" y="700" type="line"/>
      <point x="372" y="0" type="line"/>
      <point x="632" y="0" type="line" smooth="yes"/>
      <point x="814" y="0"/>
      <point x="882" y="114"/>
      <point x="882" y="225" type="curve" smooth="yes"/>
      <point x="882" y="308"/>
      <point x="841" y="342"/>
      <point x="795" y="357" type="curve"/>
      <point x="888" y="390"/>
      <point x="924" y="477"/>
      <point x="924" y="556" type="curve" smooth="yes"/>
      <point x="924" y="663"/>
      <point x="864" y="700"/>
      <point x="753" y="700" type="curve" smooth="yes"/>
    </contour>
    <contour>
      <point x="618" y="68" type="curve" smooth="yes"/>
      <point x="464" y="68" type="line"/>
      <point x="519" y="325" type="line"/>
      <point x="678" y="325" type="line" smooth="yes"/>
      <point x="748" y="325"/>
      <point x="800" y="304"/>
      <point x="800" y="234" type="curve" smooth="yes"/>
      <point x="800" y="144"/>
      <point x="757" y="68"/>
    </contour>
    <contour>
      <point x="691" y="391" type="curve" smooth="yes"/>
      <point x="533" y="391" type="line"/>
      <point x="584" y="632" type="line"/>
      <point x="735" y="632" type="line" smooth="yes"/>
      <point x="807" y="632"/>
      <point x="844" y="607"/>
      <point x="844" y="544" type="curve" smooth="yes"/>
      <point x="844" y="478"/>
      <point x="811" y="391"/>
    </contour>
  </outline>
</glyph>
<glyph name="B.ss04" format="2">
  <advance width="1266"/>
  <note>
B.ss04
</note>
  <outline>
    <contour>
      <point x="753" y="700" type="curve" smooth="yes"/>
      <point x="521" y="700" type="line"/>
      <point x="372" y="0" type="line"/>
      <point x="632" y="0" type="line" smooth="yes"/>
      <point x="814" y="0"/>
      <point x="882" y="114"/>
      <point x="882" y="225" type="curve" smooth="yes"/>
      <point x="882" y="308"/>
      <point x="841" y="342"/>
      <point x="795" y="357" type="curve"/>
      <point x="888" y="390"/>
      <point x="924" y="477"/>
      <point x="924" y="556" type="curve" smooth="yes"/>
      <point x="924" y="663"/>
      <point x="864" y="700"/>
    </contour>
    <contour>
      <point x="30" y="207" type="curve" smooth="yes"/>
      <point x="30" y="580"/>
      <point x="347" y="938"/>
      <point x="773" y="938" type="curve" smooth="yes"/>
      <point x="1078" y="938"/>
      <point x="1272" y="747"/>
      <point x="1272" y="459" type="curve" smooth="yes"/>
      <point x="1272" y="85"/>
      <point x="948" y="-271"/>
      <point x="526" y="-271" type="curve" smooth="yes"/>
      <point x="227" y="-271"/>
      <point x="30" y="-86"/>
    </contour>
    <contour>
      <point x="618" y="68" type="curve" smooth="yes"/>
      <point x="464" y="68" type="line"/>
      <point x="519" y="325" type="line"/>
      <point x="678" y="325" type="line" smooth="yes"/>
      <point x="748" y="325"/>
      <point x="800" y="304"/>
      <point x="800" y="234" type="curve" smooth="yes"/>
      <point x="800" y="144"/>
      <point x="757" y="68"/>
    </contour>
    <contour>
      <point x="691" y="391" type="curve" smooth="yes"/>
      <point x="533" y="391" type="line"/>
      <point x="584" y="632" type="line"/>
      <point x="735" y="632" type="line" smooth="yes"/>
      <point x="807" y="632"/>
      <point x="844" y="607"/>
      <point x="844" y="544" type="curve" smooth="yes"/>
      <point x="844" y="478"/>
      <point x="811" y="391"/>
    </contour>
  </outline>
</glyph>
<glyph name="C.ss03" format="2">
  <advance width="1269"/>
  <note>
C.ss03
</note>
  <outline>
    <contour>
      <point x="537" y="-271" type="curve" smooth="yes"/>
      <point x="972" y="-271"/>
      <point x="1273" y="86"/>
      <point x="1273" y="453" type="curve" smooth="yes"/>
      <point x="1273" y="750"/>
      <point x="1072" y="938"/>
      <point x="766" y="938" type="curve" smooth="yes"/>
      <point x="331" y="938"/>
      <point x="31" y="581"/>
      <point x="31" y="212" type="curve" smooth="yes"/>
      <point x="31" y="-83"/>
      <point x="231" y="-271"/>
    </contour>
    <contour>
      <point x="105" y="211" type="curve" smooth="yes"/>
      <point x="105" y="540"/>
      <point x="375" y="868"/>
      <point x="763" y="868" type="curve" smooth="yes"/>
      <point x="1034" y="868"/>
      <point x="1198" y="710"/>
      <point x="1198" y="453" type="curve" smooth="yes"/>
      <point x="1198" y="136"/>
      <point x="937" y="-201"/>
      <point x="540" y="-201" type="curve" smooth="yes"/>
      <point x="269" y="-201"/>
      <point x="105" y="-44"/>
    </contour>
    <contour>
      <point x="380" y="184" type="curve" smooth="yes"/>
      <point x="380" y="55"/>
      <point x="432" y="-10"/>
      <point x="578" y="-10" type="curve" smooth="yes"/>
      <point x="642" y="-10"/>
      <point x="700" y="1"/>
      <point x="750" y="11" type="curve"/>
      <point x="761" y="77" type="line"/>
      <point x="712" y="68"/>
      <point x="654" y="59"/>
      <point x="600" y="59" type="curve" smooth="yes"/>
      <point x="494" y="59"/>
      <point x="460" y="91"/>
      <point x="460" y="185" type="curve" smooth="yes"/>
      <point x="460" y="332"/>
      <point x="538" y="641"/>
      <point x="731" y="641" type="curve" smooth="yes"/>
      <point x="777" y="641"/>
      <point x="842" y="627"/>
      <point x="884" y="617" type="curve"/>
      <point x="901" y="682" type="line"/>
      <point x="860" y="693"/>
      <point x="801" y="710"/>
      <point x="737" y="710" type="curve" smooth="yes"/>
      <point x="463" y="710"/>
      <point x="380" y="361"/>
    </contour>
  </outline>
</glyph>
<glyph name="C.ss04" format="2">
  <advance width="1266"/>
  <note>
C.ss04
</note>
  <outline>
    <contour>
      <point x="526" y="-271" type="curve" smooth="yes"/>
      <point x="227" y="-271"/>
      <point x="30" y="-86"/>
      <point x="30" y="207" type="curve" smooth="yes"/>
      <point x="30" y="580"/>
      <point x="347" y="938"/>
      <point x="773" y="938" type="curve" smooth="yes"/>
      <point x="1078" y="938"/>
      <point x="1272" y="747"/>
      <point x="1272" y="459" type="curve" smooth="yes"/>
      <point x="1272" y="85"/>
      <point x="948" y="-271"/>
    </contour>
    <contour>
      <point x="380" y="184" type="curve" smooth="yes"/>
      <point x="380" y="55"/>
      <point x="432" y="-10"/>
      <point x="578" y="-10" type="curve" smooth="yes"/>
      <point x="642" y="-10"/>
      <point x="700" y="1"/>
      <point x="750" y="11" type="curve"/>
      <point x="761" y="77" type="line"/>
      <point x="712" y="68"/>
      <point x="654" y="59"/>
      <point x="600" y="59" type="curve" smooth="yes"/>
      <point x="494" y="59"/>
      <point x="460" y="91"/>
      <point x="460" y="185" type="curve" smooth="yes"/>
      <point x="460" y="332"/>
      <point x="538" y="641"/>
      <point x="731" y="641" type="curve" smooth="yes"/>
      <point x="777" y="641"/>
      <point x="842" y="627"/>
      <point x="884" y="617" type="curve"/>
      <point x="901" y="682" type="line"/>
      <point x="860" y="693"/>
      <point x="801" y="710"/>
      <point x="737" y="710" type="curve" smooth="yes"/>
      <point x="463" y="710"/>
      <point x="380" y="361"/>
    </contour>
  </outline>
</glyph>
<glyph name="D.ss03" format="2">
  <advance width="1269"/>
  <note>
D.ss03
</note>
  <outline>
    <contour>
      <point x="537" y="-271" type="curve" smooth="yes"/>
      <point x="972" y="-271"/>
      <point x="1273" y="86"/>
      <point x="1273" y="453" type="curve" smooth="yes"/>
      <point x="1273" y="750"/>
      <point x="1072" y="938"/>
      <point x="766" y="938" type="curve" smooth="yes"/>
      <point x="331" y="938"/>
      <point x="31" y="581"/>
      <point x="31" y="212" type="curve" smooth="yes"/>
      <point x="31" y="-83"/>
      <point x="231" y="-271"/>
    </contour>
    <contour>
      <point x="105" y="211" type="curve" smooth="yes"/>
      <point x="105" y="540"/>
      <point x="375" y="868"/>
      <point x="763" y="868" type="curve" smooth="yes"/>
      <point x="1034" y="868"/>
      <point x="1198" y="710"/>
      <point x="1198" y="453" type="curve" smooth="yes"/>
      <point x="1198" y="136"/>
      <point x="937" y="-201"/>
      <point x="540" y="-201" type="curve" smooth="yes"/>
      <point x="269" y="-201"/>
      <point x="105" y="-44"/>
    </contour>
    <contour>
      <point x="526" y="700" type="line"/>
      <point x="377" y="0" type="line"/>
      <point x="579" y="0" type="line" smooth="yes"/>
      <point x="834" y="0"/>
      <point x="951" y="261"/>
      <point x="951" y="487" type="curve" smooth="yes"/>
      <point x="951" y="616"/>
      <point x="899" y="700"/>
      <point x="728" y="700" type="curve" smooth="yes"/>
    </contour>
    <contour>
      <point x="590" y="68" type="curve" smooth="yes"/>
      <point x="469" y="68" type="line"/>
      <point x="589" y="632" type="line"/>
      <point x="729" y="632" type="line" smooth="yes"/>
      <point x="837" y="632"/>
      <point x="871" y="576"/>
      <point x="871" y="490" type="curve" smooth="yes"/>
      <point x="871" y="290"/>
      <point x="759" y="68"/>
    </contour>
  </outline>
</glyph>
<glyph name="D.ss04" format="2">
  <advance width="1266"/>
  <note>
D.ss04
</note>
  <outline>
    <contour>
      <point x="526" y="-271" type="curve" smooth="yes"/>
      <point x="227" y="-271"/>
      <point x="30" y="-86"/>
      <point x="30" y="207" type="curve" smooth="yes"/>
      <point x="30" y="580"/>
      <point x="347" y="938"/>
      <point x="773" y="938" type="curve" smooth="yes"/>
      <point x="1078" y="938"/>
      <point x="1272" y="747"/>
      <point x="1272" y="459" type="curve" smooth="yes"/>
      <point x="1272" y="85"/>
      <point x="948" y="-271"/>
    </contour>
    <contour>
      <point x="526" y="700" type="line"/>
      <point x="377" y="0" type="line"/>
      <point x="579" y="0" type="line" smooth="yes"/>
      <point x="834" y="0"/>
      <point x="951" y="261"/>
      <point x="951" y="487" type="curve" smooth="yes"/>
      <point x="951" y="616"/>
      <point x="899" y="700"/>
      <point x="728" y="700" type="curve" smooth="yes"/>
    </contour>
    <contour>
      <point x="590" y="68" type="curve" smooth="yes"/>
      <point x="469" y="68" type="line"/>
      <point x="589" y="632" type="line"/>
      <point x="729" y="632" type="line" smooth="yes"/>
      <point x="837" y="632"/>
      <point x="871" y="576"/>
      <point x="871" y="490" type="curve" smooth="yes"/>
      <point x="871" y="290"/>
      <point x="759" y="68"/>
    </contour>
  </outline>
</glyph>
<glyph name="E.ss03" format="2">
  <advance width="1269"/>
  <note>
E.ss03
</note>
  <outline>
    <contour>
      <point x="537" y="-271" type="curve" smooth="yes"/>
      <point x="972" y="-271"/>
      <point x="1273" y="86"/>
      <point x="1273" y="453" type="curve" smooth="yes"/>
      <point x="1273" y="750"/>
      <point x="1072" y="938"/>
      <point x="766" y="938" type="curve" smooth="yes"/>
      <point x="331" y="938"/>
      <point x="31" y="581"/>
      <point x="31" y="212" type="curve" smooth="yes"/>
      <point x="31" y="-83"/>
      <point x="231" y="-271"/>
    </contour>
    <contour>
      <point x="105" y="211" type="curve" smooth="yes"/>
      <point x="105" y="540"/>
      <point x="375" y="868"/>
      <point x="763" y="868" type="curve" smooth="yes"/>
      <point x="1034" y="868"/>
      <point x="1198" y="710"/>
      <point x="1198" y="453" type="curve" smooth="yes"/>
      <point x="1198" y="136"/>
      <point x="937" y="-201"/>
      <point x="540" y="-201" type="curve" smooth="yes"/>
      <point x="269" y="-201"/>
      <point x="105" y="-44"/>
    </contour>
    <contour>
      <point x="525" y="700" type="line"/>
      <point x="376" y="0" type="line"/>
      <point x="765" y="0" type="line"/>
      <point x="779" y="68" type="line"/>
      <point x="468" y="68" type="line"/>
      <point x="522" y="323" type="line"/>
      <point x="776" y="323" type="line"/>
      <point x="790" y="389" type="line"/>
      <point x="536" y="389" type="line"/>
      <point x="588" y="632" type="line"/>
      <point x="901" y="632" type="line"/>
      <point x="915" y="700" type="line"/>
    </contour>
  </outline>
</glyph>
<glyph name="E.ss04" format="2">
  <advance width="1266"/>
  <note>
E.ss04
</note>
  <outline>
    <contour>
      <point x="901" y="632" type="line"/>
      <point x="915" y="700" type="line"/>
      <point x="525" y="700" type="line"/>
      <point x="376" y="0" type="line"/>
      <point x="765" y="0" type="line"/>
      <point x="779" y="68" type="line"/>
      <point x="468" y="68" type="line"/>
      <point x="522" y="323" type="line"/>
      <point x="776" y="323" type="line"/>
      <point x="790" y="389" type="line"/>
      <point x="536" y="389" type="line"/>
      <point x="588" y="632" type="line"/>
    </contour>
    <contour>
      <point x="30" y="207" type="curve" smooth="yes"/>
      <point x="30" y="580"/>
      <point x="347" y="938"/>
      <point x="773" y="938" type="curve" smooth="yes"/>
      <point x="1078" y="938"/>
      <point x="1272" y="747"/>
      <point x="1272" y="459" type="curve" smooth="yes"/>
      <point x="1272" y="85"/>
      <point x="948" y="-271"/>
      <point x="526" y="-271" type="curve" smooth="yes"/>
      <point x="227" y="-271"/>
      <point x="30" y="-86"/>
    </contour>
  </outline>
</glyph>
<glyph name="G.ss03" format="2">
  <advance width="1269"/>
  <note>
G.ss03
</note>
  <outline>
    <contour>
      <point x="537" y="-271" type="curve" smooth="yes"/>
      <point x="972" y="-271"/>
      <point x="1273" y="86"/>
      <point x="1273" y="453" type="curve" smooth="yes"/>
      <point x="1273" y="750"/>
      <point x="1072" y="938"/>
      <point x="766" y="938" type="curve" smooth="yes"/>
      <point x="331" y="938"/>
      <point x="31" y="581"/>
      <point x="31" y="212" type="curve" smooth="yes"/>
      <point x="31" y="-83"/>
      <point x="231" y="-271"/>
    </contour>
    <contour>
      <point x="105" y="211" type="curve" smooth="yes"/>
      <point x="105" y="540"/>
      <point x="375" y="868"/>
      <point x="763" y="868" type="curve" smooth="yes"/>
      <point x="1034" y="868"/>
      <point x="1198" y="710"/>
      <point x="1198" y="453" type="curve" smooth="yes"/>
      <point x="1198" y="136"/>
      <point x="937" y="-201"/>
      <point x="540" y="-201" type="curve" smooth="yes"/>
      <point x="269" y="-201"/>
      <point x="105" y="-44"/>
    </contour>
    <contour>
      <point x="354" y="178" type="curve" smooth="yes"/>
      <point x="354" y="58"/>
      <point x="406" y="-10"/>
      <point x="554" y="-10" type="curve" smooth="yes"/>
      <point x="638" y="-10"/>
      <point x="751" y="10"/>
      <point x="773" y="14" type="curve"/>
      <point x="847" y="354" type="line"/>
      <point x="660" y="354" type="line"/>
      <point x="645" y="286" type="line"/>
      <point x="757" y="286" type="line"/>
      <point x="710" y="73" type="line"/>
      <point x="683" y="68"/>
      <point x="633" y="59"/>
      <point x="575" y="59" type="curve" smooth="yes"/>
      <point x="469" y="59"/>
      <point x="434" y="92"/>
      <point x="434" y="178" type="curve" smooth="yes"/>
      <point x="434" y="331"/>
      <point x="512" y="641"/>
      <point x="692" y="641" type="curve" smooth="yes"/>
      <point x="771" y="641"/>
      <point x="894" y="614"/>
      <point x="894" y="614" type="curve"/>
      <point x="911" y="678" type="line"/>
      <point x="911" y="678"/>
      <point x="792" y="710"/>
      <point x="699" y="710" type="curve" smooth="yes"/>
      <point x="434" y="710"/>
      <point x="354" y="357"/>
    </contour>
  </outline>
</glyph>
<glyph name="G.ss04" format="2">
  <advance width="1266"/>
  <note>
G.ss04
</note>
  <outline>
    <contour>
      <point x="773" y="14" type="curve"/>
      <point x="847" y="354" type="line"/>
      <point x="660" y="354" type="line"/>
      <point x="645" y="286" type="line"/>
      <point x="757" y="286" type="line"/>
      <point x="710" y="73" type="line"/>
      <point x="683" y="68"/>
      <point x="633" y="59"/>
      <point x="575" y="59" type="curve" smooth="yes"/>
      <point x="469" y="59"/>
      <point x="434" y="92"/>
      <point x="434" y="178" type="curve" smooth="yes"/>
      <point x="434" y="331"/>
      <point x="512" y="641"/>
      <point x="692" y="641" type="curve" smooth="yes"/>
      <point x="771" y="641"/>
      <point x="894" y="614"/>
      <point x="894" y="614" type="curve"/>
      <point x="911" y="678" type="line"/>
      <point x="911" y="678"/>
      <point x="792" y="710"/>
      <point x="699" y="710" type="curve" smooth="yes"/>
      <point x="434" y="710"/>
      <point x="354" y="357"/>
      <point x="354" y="178" type="curve" smooth="yes"/>
      <point x="354" y="58"/>
      <point x="406" y="-10"/>
      <point x="554" y="-10" type="curve" smooth="yes"/>
      <point x="638" y="-10"/>
      <point x="751" y="10"/>
    </contour>
    <contour>
      <point x="30" y="207" type="curve" smooth="yes"/>
      <point x="30" y="580"/>
      <point x="347" y="938"/>
      <point x="773" y="938" type="curve" smooth="yes"/>
      <point x="1078" y="938"/>
      <point x="1272" y="747"/>
      <point x="1272" y="459" type="curve" smooth="yes"/>
      <point x="1272" y="85"/>
      <point x="948" y="-271"/>
      <point x="526" y="-271" type="curve" smooth="yes"/>
      <point x="227" y="-271"/>
      <point x="30" y="-86"/>
    </contour>
  </outline>
</glyph>
<glyph name="H.ss03" format="2">
  <advance width="1269"/>
  <note>
H.ss03
</note>
  <outline>
    <contour>
      <point x="537" y="-271" type="curve" smooth="yes"/>
      <point x="972" y="-271"/>
      <point x="1273" y="86"/>
      <point x="1273" y="453" type="curve" smooth="yes"/>
      <point x="1273" y="750"/>
      <point x="1072" y="938"/>
      <point x="766" y="938" type="curve" smooth="yes"/>
      <point x="331" y="938"/>
      <point x="31" y="581"/>
      <point x="31" y="212" type="curve" smooth="yes"/>
      <point x="31" y="-83"/>
      <point x="231" y="-271"/>
    </contour>
    <contour>
      <point x="105" y="211" type="curve" smooth="yes"/>
      <point x="105" y="540"/>
      <point x="375" y="868"/>
      <point x="763" y="868" type="curve" smooth="yes"/>
      <point x="1034" y="868"/>
      <point x="1198" y="710"/>
      <point x="1198" y="453" type="curve" smooth="yes"/>
      <point x="1198" y="136"/>
      <point x="937" y="-201"/>
      <point x="540" y="-201" type="curve" smooth="yes"/>
      <point x="269" y="-201"/>
      <point x="105" y="-44"/>
    </contour>
    <contour>
      <point x="481" y="700" type="line"/>
      <point x="332" y="0" type="line"/>
      <point x="410" y="0" type="line"/>
      <point x="478" y="321" type="line"/>
      <point x="821" y="321" type="line"/>
      <point x="752" y="0" type="line"/>
      <point x="830" y="0" type="line"/>
      <point x="979" y="700" type="line"/>
      <point x="901" y="700" type="line"/>
      <point x="836" y="391" type="line"/>
      <point x="493" y="391" type="line"/>
      <point x="559" y="700" type="line"/>
    </contour>
  </outline>
</glyph>
<glyph name="H.ss04" format="2">
  <advance width="1266"/>
  <note>
H.ss04
</note>
  <outline>
    <contour>
      <point x="526" y="-271" type="curve" smooth="yes"/>
      <point x="227" y="-271"/>
      <point x="30" y="-86"/>
      <point x="30" y="207" type="curve" smooth="yes"/>
      <point x="30" y="580"/>
      <point x="347" y="938"/>
      <point x="773" y="938" type="curve" smooth="yes"/>
      <point x="1078" y="938"/>
      <point x="1272" y="747"/>
      <point x="1272" y="459" type="curve" smooth="yes"/>
      <point x="1272" y="85"/>
      <point x="948" y="-271"/>
    </contour>
    <contour>
      <point x="481" y="700" type="line"/>
      <point x="332" y="0" type="line"/>
      <point x="410" y="0" type="line"/>
      <point x="478" y="321" type="line"/>
      <point x="821" y="321" type="line"/>
      <point x="752" y="0" type="line"/>
      <point x="830" y="0" type="line"/>
      <point x="979" y="700" type="line"/>
      <point x="901" y="700" type="line"/>
      <point x="836" y="391" type="line"/>
      <point x="493" y="391" type="line"/>
      <point x="559" y="700" type="line"/>
    </contour>
  </outline>
</glyph>
<glyph name="J.ss03" format="2">
  <advance width="1269"/>
  <note>
J.ss03
</note>
  <outline>
    <contour>
      <point x="537" y="-271" type="curve" smooth="yes"/>
      <point x="972" y="-271"/>
      <point x="1273" y="86"/>
      <point x="1273" y="453" type="curve" smooth="yes"/>
      <point x="1273" y="750"/>
      <point x="1072" y="938"/>
      <point x="766" y="938" type="curve" smooth="yes"/>
      <point x="331" y="938"/>
      <point x="31" y="581"/>
      <point x="31" y="212" type="curve" smooth="yes"/>
      <point x="31" y="-83"/>
      <point x="231" y="-271"/>
    </contour>
    <contour>
      <point x="105" y="211" type="curve" smooth="yes"/>
      <point x="105" y="540"/>
      <point x="375" y="868"/>
      <point x="763" y="868" type="curve" smooth="yes"/>
      <point x="1034" y="868"/>
      <point x="1198" y="710"/>
      <point x="1198" y="453" type="curve" smooth="yes"/>
      <point x="1198" y="136"/>
      <point x="937" y="-201"/>
      <point x="540" y="-201" type="curve" smooth="yes"/>
      <point x="269" y="-201"/>
      <point x="105" y="-44"/>
    </contour>
    <contour>
      <point x="470" y="63" type="curve"/>
      <point x="455" y="-7" type="line"/>
      <point x="604" y="-7"/>
      <point x="647" y="10"/>
      <point x="675" y="140" type="curve" smooth="yes"/>
      <point x="794" y="700" type="line"/>
      <point x="716" y="700" type="line"/>
      <point x="600" y="152" type="line" smooth="yes"/>
      <point x="582" y="68"/>
      <point x="559" y="63"/>
    </contour>
  </outline>
</glyph>
<glyph name="J.ss04" format="2">
  <advance width="1266"/>
  <note>
J.ss04
</note>
  <outline>
    <contour>
      <point x="675" y="140" type="curve" smooth="yes"/>
      <point x="794" y="700" type="line"/>
      <point x="716" y="700" type="line"/>
      <point x="600" y="152" type="line" smooth="yes"/>
      <point x="582" y="68"/>
      <point x="559" y="63"/>
      <point x="470" y="63" type="curve"/>
      <point x="455" y="-7" type="line"/>
      <point x="604" y="-7"/>
      <point x="647" y="10"/>
    </contour>
    <contour>
      <point x="30" y="207" type="curve" smooth="yes"/>
      <point x="30" y="580"/>
      <point x="347" y="938"/>
      <point x="773" y="938" type="curve" smooth="yes"/>
      <point x="1078" y="938"/>
      <point x="1272" y="747"/>
      <point x="1272" y="459" type="curve" smooth="yes"/>
      <point x="1272" y="85"/>
      <point x="948" y="-271"/>
      <point x="526" y="-271" type="curve" smooth="yes"/>
      <point x="227" y="-271"/>
      <point x="30" y="-86"/>
    </contour>
  </outline>
</glyph>
<glyph name="J.ss05" format="2">
  <advance width="1222"/>
  <note>
J.ss05
</note>
  <outline>
    <contour>
      <point x="-78" y="-230" type="line"/>
      <point x="164" y="904" type="line"/>
      <point x="1298" y="904" type="line"/>
      <point x="1056" y="-230" type="line"/>
    </contour>
    <contour>
      <point x="227" y="826" type="line"/>
      <point x="19" y="-152" type="line"/>
      <point x="993" y="-152" type="line"/>
      <point x="1201" y="826" type="line"/>
    </contour>
    <contour>
      <point x="449" y="63" type="curve"/>
      <point x="434" y="-7" type="line"/>
      <point x="583" y="-7"/>
      <point x="626" y="10"/>
      <point x="654" y="140" type="curve" smooth="yes"/>
      <point x="773" y="700" type="line"/>
      <point x="695" y="700" type="line"/>
      <point x="579" y="152" type="line" smooth="yes"/>
      <point x="561" y="68"/>
      <point x="538" y="63"/>
    </contour>
  </outline>
</glyph>
<glyph name="K.ss03" format="2">
  <advance width="1269"/>
  <note>
K.ss03
</note>
  <outline>
    <contour>
      <point x="537" y="-271" type="curve" smooth="yes"/>
      <point x="972" y="-271"/>
      <point x="1273" y="86"/>
      <point x="1273" y="453" type="curve" smooth="yes"/>
      <point x="1273" y="750"/>
      <point x="1072" y="938"/>
      <point x="766" y="938" type="curve" smooth="yes"/>
      <point x="331" y="938"/>
      <point x="31" y="581"/>
      <point x="31" y="212" type="curve" smooth="yes"/>
      <point x="31" y="-83"/>
      <point x="231" y="-271"/>
    </contour>
    <contour>
      <point x="105" y="211" type="curve" smooth="yes"/>
      <point x="105" y="540"/>
      <point x="375" y="868"/>
      <point x="763" y="868" type="curve" smooth="yes"/>
      <point x="1034" y="868"/>
      <point x="1198" y="710"/>
      <point x="1198" y="453" type="curve" smooth="yes"/>
      <point x="1198" y="136"/>
      <point x="937" y="-201"/>
      <point x="540" y="-201" type="curve" smooth="yes"/>
      <point x="269" y="-201"/>
      <point x="105" y="-44"/>
    </contour>
    <contour>
      <point x="526" y="700" type="line"/>
      <point x="377" y="0" type="line"/>
      <point x="455" y="0" type="line"/>
      <point x="520" y="308" type="line"/>
      <point x="639" y="312" type="line"/>
      <point x="763" y="0" type="line"/>
      <point x="845" y="0" type="line"/>
      <point x="706" y="350" type="line"/>
      <point x="965" y="700" type="line"/>
      <point x="874" y="700" type="line"/>
      <point x="642" y="380" type="line"/>
      <point x="535" y="376" type="line"/>
      <point x="604" y="700" type="line"/>
    </contour>
  </outline>
</glyph>
<glyph name="K.ss04" format="2">
  <advance width="1266"/>
  <note>
K.ss04
</note>
  <outline>
    <contour>
      <point x="455" y="0" type="line"/>
      <point x="520" y="308" type="line"/>
      <point x="639" y="312" type="line"/>
      <point x="763" y="0" type="line"/>
      <point x="845" y="0" type="line"/>
      <point x="706" y="350" type="line"/>
      <point x="965" y="700" type="line"/>
      <point x="874" y="700" type="line"/>
      <point x="642" y="380" type="line"/>
      <point x="535" y="376" type="line"/>
      <point x="604" y="700" type="line"/>
      <point x="526" y="700" type="line"/>
      <point x="377" y="0" type="line"/>
    </contour>
    <contour>
      <point x="30" y="207" type="curve" smooth="yes"/>
      <point x="30" y="580"/>
      <point x="347" y="938"/>
      <point x="773" y="938" type="curve" smooth="yes"/>
      <point x="1078" y="938"/>
      <point x="1272" y="747"/>
      <point x="1272" y="459" type="curve" smooth="yes"/>
      <point x="1272" y="85"/>
      <point x="948" y="-271"/>
      <point x="526" y="-271" type="curve" smooth="yes"/>
      <point x="227" y="-271"/>
      <point x="30" y="-86"/>
    </contour>
  </outline>
</glyph>
<glyph name="M.ss03" format="2">
  <advance width="1269"/>
  <note>
M.ss03
</note>
  <outline>
    <contour>
      <point x="580" y="700" type="line"/>
      <point x="428" y="700" type="line"/>
      <point x="279" y="0" type="line"/>
      <point x="350" y="0" type="line"/>
      <point x="483" y="626" type="line"/>
      <point x="512" y="626" type="line"/>
      <point x="534" y="0" type="line"/>
      <point x="618" y="0" type="line"/>
      <point x="912" y="626" type="line"/>
      <point x="940" y="626" type="line"/>
      <point x="807" y="0" type="line"/>
      <point x="882" y="0" type="line"/>
      <point x="1031" y="700" type="line"/>
      <point x="881" y="700" type="line"/>
      <point x="598" y="88" type="line"/>
    </contour>
    <contour>
      <point x="31" y="212" type="curve" smooth="yes"/>
      <point x="31" y="-83"/>
      <point x="231" y="-271"/>
      <point x="537" y="-271" type="curve" smooth="yes"/>
      <point x="972" y="-271"/>
      <point x="1273" y="86"/>
      <point x="1273" y="453" type="curve" smooth="yes"/>
      <point x="1273" y="750"/>
      <point x="1072" y="938"/>
      <point x="766" y="938" type="curve" smooth="yes"/>
      <point x="331" y="938"/>
      <point x="31" y="581"/>
    </contour>
    <contour>
      <point x="105" y="211" type="curve" smooth="yes"/>
      <point x="105" y="540"/>
      <point x="375" y="868"/>
      <point x="763" y="868" type="curve" smooth="yes"/>
      <point x="1034" y="868"/>
      <point x="1198" y="710"/>
      <point x="1198" y="453" type="curve" smooth="yes"/>
      <point x="1198" y="136"/>
      <point x="937" y="-201"/>
      <point x="540" y="-201" type="curve" smooth="yes"/>
      <point x="269" y="-201"/>
      <point x="105" y="-44"/>
    </contour>
  </outline>
</glyph>
<glyph name="M.ss04" format="2">
  <advance width="1266"/>
  <note>
M.ss04
</note>
  <outline>
    <contour>
      <point x="604" y="83" type="line"/>
      <point x="586" y="700" type="line"/>
      <point x="425" y="700" type="line"/>
      <point x="276" y="0" type="line"/>
      <point x="354" y="0" type="line"/>
      <point x="487" y="626" type="line"/>
      <point x="516" y="626" type="line"/>
      <point x="535" y="0" type="line"/>
      <point x="640" y="0" type="line"/>
      <point x="923" y="626" type="line"/>
      <point x="952" y="626" type="line"/>
      <point x="819" y="0" type="line"/>
      <point x="897" y="0" type="line"/>
      <point x="1045" y="700" type="line"/>
      <point x="883" y="700" type="line"/>
    </contour>
    <contour>
      <point x="30" y="207" type="curve" smooth="yes"/>
      <point x="30" y="580"/>
      <point x="347" y="938"/>
      <point x="773" y="938" type="curve" smooth="yes"/>
      <point x="1078" y="938"/>
      <point x="1272" y="747"/>
      <point x="1272" y="459" type="curve" smooth="yes"/>
      <point x="1272" y="85"/>
      <point x="948" y="-271"/>
      <point x="526" y="-271" type="curve" smooth="yes"/>
      <point x="227" y="-271"/>
      <point x="30" y="-86"/>
    </contour>
  </outline>
</glyph>
<glyph name="M.ss05" format="2">
  <advance width="1222"/>
  <note>
M.ss05
</note>
  <outline>
    <contour>
      <point x="-78" y="-230" type="line"/>
      <point x="164" y="904" type="line"/>
      <point x="1298" y="904" type="line"/>
      <point x="1056" y="-230" type="line"/>
    </contour>
    <contour>
      <point x="227" y="826" type="line"/>
      <point x="19" y="-152" type="line"/>
      <point x="993" y="-152" type="line"/>
      <point x="1201" y="826" type="line"/>
    </contour>
    <contour>
      <point x="373" y="700" type="line"/>
      <point x="224" y="0" type="line"/>
      <point x="302" y="0" type="line"/>
      <point x="435" y="626" type="line"/>
      <point x="464" y="626" type="line"/>
      <point x="483" y="0" type="line"/>
      <point x="588" y="0" type="line"/>
      <point x="871" y="626" type="line"/>
      <point x="900" y="626" type="line"/>
      <point x="767" y="0" type="line"/>
      <point x="845" y="0" type="line"/>
      <point x="993" y="700" type="line"/>
      <point x="831" y="700" type="line"/>
      <point x="552" y="83" type="line"/>
      <point x="534" y="700" type="line"/>
    </contour>
  </outline>
</glyph>
<glyph name="N.ss03" format="2">
  <advance width="1269"/>
  <note>
N.ss03
</note>
  <outline>
    <contour>
      <point x="537" y="-271" type="curve" smooth="yes"/>
      <point x="972" y="-271"/>
      <point x="1273" y="86"/>
      <point x="1273" y="453" type="curve" smooth="yes"/>
      <point x="1273" y="750"/>
      <point x="1072" y="938"/>
      <point x="766" y="938" type="curve" smooth="yes"/>
      <point x="331" y="938"/>
      <point x="31" y="581"/>
      <point x="31" y="212" type="curve" smooth="yes"/>
      <point x="31" y="-83"/>
      <point x="231" y="-271"/>
    </contour>
    <contour>
      <point x="105" y="211" type="curve" smooth="yes"/>
      <point x="105" y="540"/>
      <point x="375" y="868"/>
      <point x="763" y="868" type="curve" smooth="yes"/>
      <point x="1034" y="868"/>
      <point x="1198" y="710"/>
      <point x="1198" y="453" type="curve" smooth="yes"/>
      <point x="1198" y="136"/>
      <point x="937" y="-201"/>
      <point x="540" y="-201" type="curve" smooth="yes"/>
      <point x="269" y="-201"/>
      <point x="105" y="-44"/>
    </contour>
    <contour>
      <point x="471" y="700" type="line"/>
      <point x="322" y="0" type="line"/>
      <point x="400" y="0" type="line"/>
      <point x="533" y="626" type="line"/>
      <point x="562" y="626" type="line"/>
      <point x="648" y="0" type="line"/>
      <point x="803" y="0" type="line"/>
      <point x="952" y="700" type="line"/>
      <point x="874" y="700" type="line"/>
      <point x="741" y="74" type="line"/>
      <point x="712" y="74" type="line"/>
      <point x="626" y="700" type="line"/>
    </contour>
  </outline>
</glyph>
<glyph name="N.ss04" format="2">
  <advance width="1266"/>
  <note>
N.ss04
</note>
  <outline>
    <contour>
      <point x="712" y="74" type="line"/>
      <point x="626" y="700" type="line"/>
      <point x="471" y="700" type="line"/>
      <point x="322" y="0" type="line"/>
      <point x="400" y="0" type="line"/>
      <point x="533" y="626" type="line"/>
      <point x="562" y="626" type="line"/>
      <point x="648" y="0" type="line"/>
      <point x="803" y="0" type="line"/>
      <point x="952" y="700" type="line"/>
      <point x="874" y="700" type="line"/>
      <point x="741" y="74" type="line"/>
    </contour>
    <contour>
      <point x="30" y="207" type="curve" smooth="yes"/>
      <point x="30" y="580"/>
      <point x="347" y="938"/>
      <point x="773" y="938" type="curve" smooth="yes"/>
      <point x="1078" y="938"/>
      <point x="1272" y="747"/>
      <point x="1272" y="459" type="curve" smooth="yes"/>
      <point x="1272" y="85"/>
      <point x="948" y="-271"/>
      <point x="526" y="-271" type="curve" smooth="yes"/>
      <point x="227" y="-271"/>
      <point x="30" y="-86"/>
    </contour>
  </outline>
</glyph>
<glyph name="O.ss03" format="2">
  <advance width="1269"/>
  <note>
O.ss03
</note>
  <outline>
    <contour>
      <point x="537" y="-271" type="curve" smooth="yes"/>
      <point x="972" y="-271"/>
      <point x="1273" y="86"/>
      <point x="1273" y="453" type="curve" smooth="yes"/>
      <point x="1273" y="750"/>
      <point x="1072" y="938"/>
      <point x="766" y="938" type="curve" smooth="yes"/>
      <point x="331" y="938"/>
      <point x="31" y="581"/>
      <point x="31" y="212" type="curve" smooth="yes"/>
      <point x="31" y="-83"/>
      <point x="231" y="-271"/>
    </contour>
    <contour>
      <point x="105" y="211" type="curve" smooth="yes"/>
      <point x="105" y="540"/>
      <point x="375" y="868"/>
      <point x="763" y="868" type="curve" smooth="yes"/>
      <point x="1034" y="868"/>
      <point x="1198" y="710"/>
      <point x="1198" y="453" type="curve" smooth="yes"/>
      <point x="1198" y="136"/>
      <point x="937" y="-201"/>
      <point x="540" y="-201" type="curve" smooth="yes"/>
      <point x="269" y="-201"/>
      <point x="105" y="-44"/>
    </contour>
    <contour>
      <point x="369" y="211" type="curve" smooth="yes"/>
      <point x="369" y="45"/>
      <point x="470" y="-10"/>
      <point x="586" y="-10" type="curve" smooth="yes"/>
      <point x="876" y="-10"/>
      <point x="936" y="322"/>
      <point x="936" y="484" type="curve" smooth="yes"/>
      <point x="936" y="656"/>
      <point x="828" y="710"/>
      <point x="723" y="710" type="curve" smooth="yes"/>
      <point x="435" y="710"/>
      <point x="369" y="383"/>
    </contour>
    <contour>
      <point x="449" y="206" type="curve" smooth="yes"/>
      <point x="449" y="346"/>
      <point x="507" y="641"/>
      <point x="706" y="641" type="curve" smooth="yes"/>
      <point x="776" y="641"/>
      <point x="857" y="615"/>
      <point x="857" y="481" type="curve" smooth="yes"/>
      <point x="857" y="342"/>
      <point x="792" y="60"/>
      <point x="597" y="60" type="curve" smooth="yes"/>
      <point x="521" y="60"/>
      <point x="449" y="84"/>
    </contour>
  </outline>
</glyph>
<glyph name="O.ss04" format="2">
  <advance width="1266"/>
  <note>
O.ss04
</note>
  <outline>
    <contour>
      <point x="586" y="-10" type="curve" smooth="yes"/>
      <point x="876" y="-10"/>
      <point x="936" y="322"/>
      <point x="936" y="484" type="curve" smooth="yes"/>
      <point x="936" y="656"/>
      <point x="828" y="710"/>
      <point x="723" y="710" type="curve" smooth="yes"/>
      <point x="435" y="710"/>
      <point x="369" y="383"/>
      <point x="369" y="211" type="curve" smooth="yes"/>
      <point x="369" y="45"/>
      <point x="470" y="-10"/>
    </contour>
    <contour>
      <point x="30" y="207" type="curve" smooth="yes"/>
      <point x="30" y="580"/>
      <point x="347" y="938"/>
      <point x="773" y="938" type="curve" smooth="yes"/>
      <point x="1078" y="938"/>
      <point x="1272" y="747"/>
      <point x="1272" y="459" type="curve" smooth="yes"/>
      <point x="1272" y="85"/>
      <point x="948" y="-271"/>
      <point x="526" y="-271" type="curve" smooth="yes"/>
      <point x="227" y="-271"/>
      <point x="30" y="-86"/>
    </contour>
    <contour>
      <point x="449" y="206" type="curve" smooth="yes"/>
      <point x="449" y="346"/>
      <point x="507" y="641"/>
      <point x="706" y="641" type="curve" smooth="yes"/>
      <point x="776" y="641"/>
      <point x="857" y="615"/>
      <point x="857" y="481" type="curve" smooth="yes"/>
      <point x="857" y="342"/>
      <point x="792" y="60"/>
      <point x="597" y="60" type="curve" smooth="yes"/>
      <point x="521" y="60"/>
      <point x="449" y="84"/>
    </contour>
  </outline>
</glyph>
<glyph name="P.ss03" format="2">
  <advance width="1269"/>
  <note>
P.ss03
</note>
  <outline>
    <contour>
      <point x="537" y="-271" type="curve" smooth="yes"/>
      <point x="972" y="-271"/>
      <point x="1273" y="86"/>
      <point x="1273" y="453" type="curve" smooth="yes"/>
      <point x="1273" y="750"/>
      <point x="1072" y="938"/>
      <point x="766" y="938" type="curve" smooth="yes"/>
      <point x="331" y="938"/>
      <point x="31" y="581"/>
      <point x="31" y="212" type="curve" smooth="yes"/>
      <point x="31" y="-83"/>
      <point x="231" y="-271"/>
    </contour>
    <contour>
      <point x="105" y="211" type="curve" smooth="yes"/>
      <point x="105" y="540"/>
      <point x="375" y="868"/>
      <point x="763" y="868" type="curve" smooth="yes"/>
      <point x="1034" y="868"/>
      <point x="1198" y="710"/>
      <point x="1198" y="453" type="curve" smooth="yes"/>
      <point x="1198" y="136"/>
      <point x="937" y="-201"/>
      <point x="540" y="-201" type="curve" smooth="yes"/>
      <point x="269" y="-201"/>
      <point x="105" y="-44"/>
    </contour>
    <contour>
      <point x="535" y="700" type="line"/>
      <point x="386" y="0" type="line"/>
      <point x="464" y="0" type="line"/>
      <point x="513" y="233" type="line"/>
      <point x="657" y="233" type="line" smooth="yes"/>
      <point x="866" y="233"/>
      <point x="935" y="401"/>
      <point x="935" y="527" type="curve" smooth="yes"/>
      <point x="935" y="648"/>
      <point x="865" y="700"/>
      <point x="745" y="700" type="curve" smooth="yes"/>
    </contour>
    <contour>
      <point x="670" y="301" type="curve" smooth="yes"/>
      <point x="528" y="301" type="line"/>
      <point x="598" y="632" type="line"/>
      <point x="742" y="632" type="line" smooth="yes"/>
      <point x="820" y="632"/>
      <point x="855" y="603"/>
      <point x="855" y="523" type="curve" smooth="yes"/>
      <point x="855" y="423"/>
      <point x="810" y="301"/>
    </contour>
  </outline>
</glyph>
<glyph name="P.ss04" format="2">
  <advance width="1266"/>
  <note>
P.ss04
</note>
  <outline>
    <contour>
      <point x="386" y="0" type="line"/>
      <point x="464" y="0" type="line"/>
      <point x="513" y="233" type="line"/>
      <point x="657" y="233" type="line" smooth="yes"/>
      <point x="866" y="233"/>
      <point x="935" y="401"/>
      <point x="935" y="527" type="curve" smooth="yes"/>
      <point x="935" y="648"/>
      <point x="865" y="700"/>
      <point x="745" y="700" type="curve" smooth="yes"/>
      <point x="535" y="700" type="line"/>
    </contour>
    <contour>
      <point x="30" y="207" type="curve" smooth="yes"/>
      <point x="30" y="580"/>
      <point x="347" y="938"/>
      <point x="773" y="938" type="curve" smooth="yes"/>
      <point x="1078" y="938"/>
      <point x="1272" y="747"/>
      <point x="1272" y="459" type="curve" smooth="yes"/>
      <point x="1272" y="85"/>
      <point x="948" y="-271"/>
      <point x="526" y="-271" type="curve" smooth="yes"/>
      <point x="227" y="-271"/>
      <point x="30" y="-86"/>
    </contour>
    <contour>
      <point x="670" y="301" type="curve" smooth="yes"/>
      <point x="528" y="301" type="line"/>
      <point x="598" y="632" type="line"/>
      <point x="742" y="632" type="line" smooth="yes"/>
      <point x="820" y="632"/>
      <point x="855" y="603"/>
      <point x="855" y="523" type="curve" smooth="yes"/>
      <point x="855" y="423"/>
      <point x="810" y="301"/>
    </contour>
  </outline>
</glyph>
<glyph name="Q.ss03" format="2">
  <advance width="1269"/>
  <note>
Q.ss03
</note>
  <outline>
    <contour>
      <point x="591" y="60" type="curve" smooth="yes"/>
      <point x="493" y="60"/>
      <point x="445" y="109"/>
      <point x="445" y="204" type="curve" smooth="yes"/>
      <point x="445" y="337"/>
      <point x="493" y="641"/>
      <point x="708" y="641" type="curve" smooth="yes"/>
      <point x="815" y="641"/>
      <point x="852" y="578"/>
      <point x="852" y="481" type="curve" smooth="yes"/>
      <point x="852" y="336"/>
      <point x="813" y="60"/>
    </contour>
    <contour>
      <point x="31" y="212" type="curve" smooth="yes"/>
      <point x="31" y="-83"/>
      <point x="231" y="-271"/>
      <point x="537" y="-271" type="curve" smooth="yes"/>
      <point x="972" y="-271"/>
      <point x="1273" y="86"/>
      <point x="1273" y="453" type="curve" smooth="yes"/>
      <point x="1273" y="750"/>
      <point x="1072" y="938"/>
      <point x="766" y="938" type="curve" smooth="yes"/>
      <point x="331" y="938"/>
      <point x="31" y="581"/>
    </contour>
    <contour>
      <point x="105" y="211" type="curve" smooth="yes"/>
      <point x="105" y="540"/>
      <point x="375" y="868"/>
      <point x="763" y="868" type="curve" smooth="yes"/>
      <point x="1034" y="868"/>
      <point x="1198" y="710"/>
      <point x="1198" y="453" type="curve" smooth="yes"/>
      <point x="1198" y="136"/>
      <point x="937" y="-201"/>
      <point x="540" y="-201" type="curve" smooth="yes"/>
      <point x="269" y="-201"/>
      <point x="105" y="-44"/>
    </contour>
    <contour>
      <point x="364" y="215" type="curve" smooth="yes"/>
      <point x="364" y="86"/>
      <point x="427" y="-10"/>
      <point x="580" y="-10" type="curve" smooth="yes"/>
      <point x="610" y="-10"/>
      <point x="629" y="-7"/>
      <point x="655" y="-2" type="curve"/>
      <point x="718" y="-118" type="line"/>
      <point x="789" y="-77" type="line"/>
      <point x="732" y="26" type="line"/>
      <point x="888" y="114"/>
      <point x="931" y="364"/>
      <point x="931" y="486" type="curve" smooth="yes"/>
      <point x="931" y="618"/>
      <point x="862" y="710"/>
      <point x="723" y="710" type="curve" smooth="yes"/>
      <point x="429" y="710"/>
      <point x="364" y="386"/>
    </contour>
  </outline>
</glyph>
<glyph name="Q.ss04" format="2">
  <advance width="1266"/>
  <note>
Q.ss04
</note>
  <outline>
    <contour>
      <point x="577" y="-10" type="curve" smooth="yes"/>
      <point x="594" y="-10"/>
      <point x="611" y="-9"/>
      <point x="651" y="-3" type="curve"/>
      <point x="714" y="-118" type="line"/>
      <point x="785" y="-77" type="line"/>
      <point x="728" y="26" type="line"/>
      <point x="877" y="108"/>
      <point x="927" y="348"/>
      <point x="927" y="484" type="curve" smooth="yes"/>
      <point x="927" y="656"/>
      <point x="824" y="710"/>
      <point x="714" y="710" type="curve" smooth="yes"/>
      <point x="426" y="710"/>
      <point x="360" y="383"/>
      <point x="360" y="211" type="curve" smooth="yes"/>
      <point x="360" y="45"/>
      <point x="461" y="-10"/>
    </contour>
    <contour>
      <point x="30" y="207" type="curve" smooth="yes"/>
      <point x="30" y="580"/>
      <point x="347" y="938"/>
      <point x="773" y="938" type="curve" smooth="yes"/>
      <point x="1078" y="938"/>
      <point x="1272" y="747"/>
      <point x="1272" y="459" type="curve" smooth="yes"/>
      <point x="1272" y="85"/>
      <point x="948" y="-271"/>
      <point x="526" y="-271" type="curve" smooth="yes"/>
      <point x="227" y="-271"/>
      <point x="30" y="-86"/>
    </contour>
    <contour>
      <point x="440" y="206" type="curve" smooth="yes"/>
      <point x="440" y="346"/>
      <point x="498" y="641"/>
      <point x="697" y="641" type="curve" smooth="yes"/>
      <point x="777" y="641"/>
      <point x="848" y="615"/>
      <point x="848" y="481" type="curve" smooth="yes"/>
      <point x="848" y="282"/>
      <point x="783" y="60"/>
      <point x="588" y="60" type="curve" smooth="yes"/>
      <point x="512" y="60"/>
      <point x="440" y="84"/>
    </contour>
  </outline>
</glyph>
<glyph name="R.ss03" format="2">
  <advance width="1269"/>
  <note>
R.ss03
</note>
  <outline>
    <contour>
      <point x="537" y="-271" type="curve" smooth="yes"/>
      <point x="972" y="-271"/>
      <point x="1273" y="86"/>
      <point x="1273" y="453" type="curve" smooth="yes"/>
      <point x="1273" y="750"/>
      <point x="1072" y="938"/>
      <point x="766" y="938" type="curve" smooth="yes"/>
      <point x="331" y="938"/>
      <point x="31" y="581"/>
      <point x="31" y="212" type="curve" smooth="yes"/>
      <point x="31" y="-83"/>
      <point x="231" y="-271"/>
    </contour>
    <contour>
      <point x="105" y="211" type="curve" smooth="yes"/>
      <point x="105" y="540"/>
      <point x="375" y="868"/>
      <point x="763" y="868" type="curve" smooth="yes"/>
      <point x="1034" y="868"/>
      <point x="1198" y="710"/>
      <point x="1198" y="453" type="curve" smooth="yes"/>
      <point x="1198" y="136"/>
      <point x="937" y="-201"/>
      <point x="540" y="-201" type="curve" smooth="yes"/>
      <point x="269" y="-201"/>
      <point x="105" y="-44"/>
    </contour>
    <contour>
      <point x="516" y="700" type="line"/>
      <point x="367" y="0" type="line"/>
      <point x="445" y="0" type="line"/>
      <point x="501" y="265" type="line"/>
      <point x="676" y="265" type="line"/>
      <point x="741" y="0" type="line"/>
      <point x="820" y="0" type="line"/>
      <point x="750" y="280" type="line"/>
      <point x="880" y="315"/>
      <point x="926" y="420"/>
      <point x="926" y="518" type="curve" smooth="yes"/>
      <point x="926" y="632"/>
      <point x="864" y="700"/>
      <point x="728" y="700" type="curve" smooth="yes"/>
    </contour>
    <contour>
      <point x="670" y="333" type="curve" smooth="yes"/>
      <point x="516" y="333" type="line"/>
      <point x="579" y="632" type="line"/>
      <point x="732" y="632" type="line" smooth="yes"/>
      <point x="809" y="632"/>
      <point x="846" y="581"/>
      <point x="846" y="508" type="curve" smooth="yes"/>
      <point x="846" y="431"/>
      <point x="805" y="333"/>
    </contour>
  </outline>
</glyph>
<glyph name="R.ss04" format="2">
  <advance width="1266"/>
  <note>
R.ss04
</note>
  <outline>
    <contour>
      <point x="367" y="0" type="line"/>
      <point x="445" y="0" type="line"/>
      <point x="501" y="265" type="line"/>
      <point x="676" y="265" type="line"/>
      <point x="741" y="0" type="line"/>
      <point x="820" y="0" type="line"/>
      <point x="750" y="280" type="line"/>
      <point x="880" y="315"/>
      <point x="926" y="420"/>
      <point x="926" y="518" type="curve" smooth="yes"/>
      <point x="926" y="632"/>
      <point x="864" y="700"/>
      <point x="728" y="700" type="curve" smooth="yes"/>
      <point x="516" y="700" type="line"/>
    </contour>
    <contour>
      <point x="30" y="207" type="curve" smooth="yes"/>
      <point x="30" y="580"/>
      <point x="347" y="938"/>
      <point x="773" y="938" type="curve" smooth="yes"/>
      <point x="1078" y="938"/>
      <point x="1272" y="747"/>
      <point x="1272" y="459" type="curve" smooth="yes"/>
      <point x="1272" y="85"/>
      <point x="948" y="-271"/>
      <point x="526" y="-271" type="curve" smooth="yes"/>
      <point x="227" y="-271"/>
      <point x="30" y="-86"/>
    </contour>
    <contour>
      <point x="670" y="333" type="curve" smooth="yes"/>
      <point x="516" y="333" type="line"/>
      <point x="579" y="632" type="line"/>
      <point x="732" y="632" type="line" smooth="yes"/>
      <point x="809" y="632"/>
      <point x="846" y="581"/>
      <point x="846" y="508" type="curve" smooth="yes"/>
      <point x="846" y="431"/>
      <point x="805" y="333"/>
    </contour>
  </outline>
</glyph>
<glyph name="S.ss03" format="2">
  <advance width="1269"/>
  <note>
S.ss03
</note>
  <outline>
    <contour>
      <point x="537" y="-271" type="curve" smooth="yes"/>
      <point x="972" y="-271"/>
      <point x="1273" y="86"/>
      <point x="1273" y="453" type="curve" smooth="yes"/>
      <point x="1273" y="750"/>
      <point x="1072" y="938"/>
      <point x="766" y="938" type="curve" smooth="yes"/>
      <point x="331" y="938"/>
      <point x="31" y="581"/>
      <point x="31" y="212" type="curve" smooth="yes"/>
      <point x="31" y="-83"/>
      <point x="231" y="-271"/>
    </contour>
    <contour>
      <point x="105" y="211" type="curve" smooth="yes"/>
      <point x="105" y="540"/>
      <point x="375" y="868"/>
      <point x="763" y="868" type="curve" smooth="yes"/>
      <point x="1034" y="868"/>
      <point x="1198" y="710"/>
      <point x="1198" y="453" type="curve" smooth="yes"/>
      <point x="1198" y="136"/>
      <point x="937" y="-201"/>
      <point x="540" y="-201" type="curve" smooth="yes"/>
      <point x="269" y="-201"/>
      <point x="105" y="-44"/>
    </contour>
    <contour>
      <point x="391" y="78" type="curve"/>
      <point x="377" y="13" type="line"/>
      <point x="377" y="13"/>
      <point x="489" y="-10"/>
      <point x="569" y="-10" type="curve" smooth="yes"/>
      <point x="768" y="-10"/>
      <point x="830" y="120"/>
      <point x="830" y="224" type="curve" smooth="yes"/>
      <point x="830" y="303"/>
      <point x="790" y="356"/>
      <point x="698" y="384" type="curve" smooth="yes"/>
      <point x="619" y="408" type="line" smooth="yes"/>
      <point x="561" y="426"/>
      <point x="541" y="450"/>
      <point x="541" y="496" type="curve" smooth="yes"/>
      <point x="541" y="563"/>
      <point x="581" y="642"/>
      <point x="706" y="642" type="curve" smooth="yes"/>
      <point x="780" y="642"/>
      <point x="891" y="618"/>
      <point x="891" y="618" type="curve"/>
      <point x="907" y="683" type="line"/>
      <point x="907" y="683"/>
      <point x="812" y="710"/>
      <point x="720" y="710" type="curve" smooth="yes"/>
      <point x="527" y="710"/>
      <point x="466" y="585"/>
      <point x="466" y="486" type="curve" smooth="yes"/>
      <point x="466" y="407"/>
      <point x="512" y="366"/>
      <point x="584" y="343" type="curve" smooth="yes"/>
      <point x="671" y="315" type="line" smooth="yes"/>
      <point x="729" y="296"/>
      <point x="754" y="262"/>
      <point x="754" y="212" type="curve" smooth="yes"/>
      <point x="754" y="144"/>
      <point x="721" y="58"/>
      <point x="579" y="58" type="curve" smooth="yes"/>
      <point x="508" y="58"/>
      <point x="391" y="78"/>
    </contour>
  </outline>
</glyph>
<glyph name="S.ss04" format="2">
  <advance width="1266"/>
  <note>
S.ss04
</note>
  <outline>
    <contour>
      <point x="891" y="618" type="curve"/>
      <point x="907" y="683" type="line"/>
      <point x="907" y="683"/>
      <point x="812" y="710"/>
      <point x="720" y="710" type="curve" smooth="yes"/>
      <point x="527" y="710"/>
      <point x="466" y="585"/>
      <point x="466" y="486" type="curve" smooth="yes"/>
      <point x="466" y="407"/>
      <point x="512" y="366"/>
      <point x="584" y="343" type="curve" smooth="yes"/>
      <point x="671" y="315" type="line" smooth="yes"/>
      <point x="729" y="296"/>
      <point x="754" y="262"/>
      <point x="754" y="212" type="curve" smooth="yes"/>
      <point x="754" y="144"/>
      <point x="721" y="58"/>
      <point x="579" y="58" type="curve" smooth="yes"/>
      <point x="508" y="58"/>
      <point x="391" y="78"/>
      <point x="391" y="78" type="curve"/>
      <point x="377" y="13" type="line"/>
      <point x="377" y="13"/>
      <point x="489" y="-10"/>
      <point x="569" y="-10" type="curve" smooth="yes"/>
      <point x="768" y="-10"/>
      <point x="830" y="120"/>
      <point x="830" y="224" type="curve" smooth="yes"/>
      <point x="830" y="303"/>
      <point x="790" y="356"/>
      <point x="698" y="384" type="curve" smooth="yes"/>
      <point x="619" y="408" type="line" smooth="yes"/>
      <point x="561" y="426"/>
      <point x="541" y="450"/>
      <point x="541" y="496" type="curve" smooth="yes"/>
      <point x="541" y="563"/>
      <point x="581" y="642"/>
      <point x="706" y="642" type="curve" smooth="yes"/>
      <point x="780" y="642"/>
      <point x="891" y="618"/>
    </contour>
    <contour>
      <point x="30" y="207" type="curve" smooth="yes"/>
      <point x="30" y="580"/>
      <point x="347" y="938"/>
      <point x="773" y="938" type="curve" smooth="yes"/>
      <point x="1078" y="938"/>
      <point x="1272" y="747"/>
      <point x="1272" y="459" type="curve" smooth="yes"/>
      <point x="1272" y="85"/>
      <point x="948" y="-271"/>
      <point x="526" y="-271" type="curve" smooth="yes"/>
      <point x="227" y="-271"/>
      <point x="30" y="-86"/>
    </contour>
  </outline>
</glyph>
<glyph name="T.ss03" format="2">
  <advance width="1269"/>
  <note>
T.ss03
</note>
  <outline>
    <contour>
      <point x="537" y="-271" type="curve" smooth="yes"/>
      <point x="972" y="-271"/>
      <point x="1273" y="86"/>
      <point x="1273" y="453" type="curve" smooth="yes"/>
      <point x="1273" y="750"/>
      <point x="1072" y="938"/>
      <point x="766" y="938" type="curve" smooth="yes"/>
      <point x="331" y="938"/>
      <point x="31" y="581"/>
      <point x="31" y="212" type="curve" smooth="yes"/>
      <point x="31" y="-83"/>
      <point x="231" y="-271"/>
    </contour>
    <contour>
      <point x="105" y="211" type="curve" smooth="yes"/>
      <point x="105" y="540"/>
      <point x="375" y="868"/>
      <point x="763" y="868" type="curve" smooth="yes"/>
      <point x="1034" y="868"/>
      <point x="1198" y="710"/>
      <point x="1198" y="453" type="curve" smooth="yes"/>
      <point x="1198" y="136"/>
      <point x="937" y="-201"/>
      <point x="540" y="-201" type="curve" smooth="yes"/>
      <point x="269" y="-201"/>
      <point x="105" y="-44"/>
    </contour>
    <contour>
      <point x="485" y="700" type="line"/>
      <point x="470" y="630" type="line"/>
      <point x="676" y="630" type="line"/>
      <point x="542" y="0" type="line"/>
      <point x="620" y="0" type="line"/>
      <point x="754" y="630" type="line"/>
      <point x="959" y="630" type="line"/>
      <point x="974" y="700" type="line"/>
    </contour>
  </outline>
</glyph>
<glyph name="T.ss04" format="2">
  <advance width="1266"/>
  <note>
T.ss04
</note>
  <outline>
    <contour>
      <point x="959" y="630" type="line"/>
      <point x="974" y="700" type="line"/>
      <point x="485" y="700" type="line"/>
      <point x="470" y="630" type="line"/>
      <point x="676" y="630" type="line"/>
      <point x="542" y="0" type="line"/>
      <point x="620" y="0" type="line"/>
      <point x="754" y="630" type="line"/>
    </contour>
    <contour>
      <point x="30" y="207" type="curve" smooth="yes"/>
      <point x="30" y="580"/>
      <point x="347" y="938"/>
      <point x="773" y="938" type="curve" smooth="yes"/>
      <point x="1078" y="938"/>
      <point x="1272" y="747"/>
      <point x="1272" y="459" type="curve" smooth="yes"/>
      <point x="1272" y="85"/>
      <point x="948" y="-271"/>
      <point x="526" y="-271" type="curve" smooth="yes"/>
      <point x="227" y="-271"/>
      <point x="30" y="-86"/>
    </contour>
  </outline>
</glyph>
<glyph name="U.ss03" format="2">
  <advance width="1269"/>
  <note>
U.ss03
</note>
  <outline>
    <contour>
      <point x="537" y="-271" type="curve" smooth="yes"/>
      <point x="972" y="-271"/>
      <point x="1273" y="86"/>
      <point x="1273" y="453" type="curve" smooth="yes"/>
      <point x="1273" y="750"/>
      <point x="1072" y="938"/>
      <point x="766" y="938" type="curve" smooth="yes"/>
      <point x="331" y="938"/>
      <point x="31" y="581"/>
      <point x="31" y="212" type="curve" smooth="yes"/>
      <point x="31" y="-83"/>
      <point x="231" y="-271"/>
    </contour>
    <contour>
      <point x="105" y="211" type="curve" smooth="yes"/>
      <point x="105" y="540"/>
      <point x="375" y="868"/>
      <point x="763" y="868" type="curve" smooth="yes"/>
      <point x="1034" y="868"/>
      <point x="1198" y="710"/>
      <point x="1198" y="453" type="curve" smooth="yes"/>
      <point x="1198" y="136"/>
      <point x="937" y="-201"/>
      <point x="540" y="-201" type="curve" smooth="yes"/>
      <point x="269" y="-201"/>
      <point x="105" y="-44"/>
    </contour>
    <contour>
      <point x="491" y="700" type="line"/>
      <point x="391" y="231" type="line" smooth="yes"/>
      <point x="359" y="79"/>
      <point x="432" y="-10"/>
      <point x="597" y="-10" type="curve" smooth="yes"/>
      <point x="740" y="-10"/>
      <point x="828" y="43"/>
      <point x="861" y="200" type="curve" smooth="yes"/>
      <point x="967" y="700" type="line"/>
      <point x="889" y="700" type="line"/>
      <point x="785" y="207" type="line" smooth="yes"/>
      <point x="762" y="100"/>
      <point x="702" y="59"/>
      <point x="600" y="59" type="curve" smooth="yes"/>
      <point x="488" y="59"/>
      <point x="443" y="110"/>
      <point x="466" y="218" type="curve" smooth="yes"/>
      <point x="569" y="700" type="line"/>
    </contour>
  </outline>
</glyph>
<glyph name="U.ss04" format="2">
  <advance width="1266"/>
  <note>
U.ss04
</note>
  <outline>
    <contour>
      <point x="466" y="218" type="curve" smooth="yes"/>
      <point x="569" y="700" type="line"/>
      <point x="491" y="700" type="line"/>
      <point x="391" y="231" type="line" smooth="yes"/>
      <point x="359" y="79"/>
      <point x="432" y="-10"/>
      <point x="597" y="-10" type="curve" smooth="yes"/>
      <point x="740" y="-10"/>
      <point x="828" y="43"/>
      <point x="861" y="200" type="curve" smooth="yes"/>
      <point x="967" y="700" type="line"/>
      <point x="889" y="700" type="line"/>
      <point x="785" y="207" type="line" smooth="yes"/>
      <point x="762" y="100"/>
      <point x="702" y="59"/>
      <point x="600" y="59" type="curve" smooth="yes"/>
      <point x="488" y="59"/>
      <point x="443" y="110"/>
    </contour>
    <contour>
      <point x="30" y="207" type="curve" smooth="yes"/>
      <point x="30" y="580"/>
      <point x="347" y="938"/>
      <point x="773" y="938" type="curve" smooth="yes"/>
      <point x="1078" y="938"/>
      <point x="1272" y="747"/>
      <point x="1272" y="459" type="curve" smooth="yes"/>
      <point x="1272" y="85"/>
      <point x="948" y="-271"/>
      <point x="526" y="-271" type="curve" smooth="yes"/>
      <point x="227" y="-271"/>
      <point x="30" y="-86"/>
    </contour>
  </outline>
</glyph>
<glyph name="W.ss03" format="2">
  <advance width="1269"/>
  <note>
W.ss03
</note>
  <outline>
    <contour>
      <point x="411" y="74" type="line"/>
      <point x="460" y="700" type="line"/>
      <point x="385" y="700" type="line"/>
      <point x="344" y="0" type="line"/>
      <point x="472" y="0" type="line"/>
      <point x="706" y="590" type="line"/>
      <point x="690" y="0" type="line"/>
      <point x="819" y="0" type="line"/>
      <point x="1074" y="700" type="line"/>
      <point x="1003" y="700" type="line"/>
      <point x="787" y="74" type="line"/>
      <point x="758" y="74" type="line"/>
      <point x="772" y="685" type="line"/>
      <point x="685" y="685" type="line"/>
      <point x="440" y="74" type="line"/>
    </contour>
    <contour>
      <point x="31" y="212" type="curve" smooth="yes"/>
      <point x="31" y="-83"/>
      <point x="231" y="-271"/>
      <point x="537" y="-271" type="curve" smooth="yes"/>
      <point x="972" y="-271"/>
      <point x="1273" y="86"/>
      <point x="1273" y="453" type="curve" smooth="yes"/>
      <point x="1273" y="750"/>
      <point x="1072" y="938"/>
      <point x="766" y="938" type="curve" smooth="yes"/>
      <point x="331" y="938"/>
      <point x="31" y="581"/>
    </contour>
    <contour>
      <point x="105" y="211" type="curve" smooth="yes"/>
      <point x="105" y="540"/>
      <point x="375" y="868"/>
      <point x="763" y="868" type="curve" smooth="yes"/>
      <point x="1034" y="868"/>
      <point x="1198" y="710"/>
      <point x="1198" y="453" type="curve" smooth="yes"/>
      <point x="1198" y="136"/>
      <point x="937" y="-201"/>
      <point x="540" y="-201" type="curve" smooth="yes"/>
      <point x="269" y="-201"/>
      <point x="105" y="-44"/>
    </contour>
  </outline>
</glyph>
<glyph name="W.ss04" format="2">
  <advance width="1266"/>
  <note>
W.ss04
</note>
  <outline>
    <contour>
      <point x="419" y="74" type="line"/>
      <point x="390" y="74" type="line"/>
      <point x="416" y="700" type="line"/>
      <point x="340" y="700" type="line"/>
      <point x="313" y="0" type="line"/>
      <point x="459" y="0" type="line"/>
      <point x="703" y="590" type="line"/>
      <point x="689" y="0" type="line"/>
      <point x="834" y="0" type="line"/>
      <point x="1115" y="700" type="line"/>
      <point x="1038" y="700" type="line"/>
      <point x="788" y="74" type="line"/>
      <point x="759" y="74" type="line"/>
      <point x="771" y="685" type="line"/>
      <point x="676" y="685" type="line"/>
    </contour>
    <contour>
      <point x="30" y="207" type="curve" smooth="yes"/>
      <point x="30" y="580"/>
      <point x="347" y="938"/>
      <point x="773" y="938" type="curve" smooth="yes"/>
      <point x="1078" y="938"/>
      <point x="1272" y="747"/>
      <point x="1272" y="459" type="curve" smooth="yes"/>
      <point x="1272" y="85"/>
      <point x="948" y="-271"/>
      <point x="526" y="-271" type="curve" smooth="yes"/>
      <point x="227" y="-271"/>
      <point x="30" y="-86"/>
    </contour>
  </outline>
</glyph>
<glyph name="W.ss05" format="2">
  <advance width="1222"/>
  <note>
W.ss05
</note>
  <outline>
    <contour>
      <point x="361" y="74" type="line"/>
      <point x="406" y="700" type="line"/>
      <point x="328" y="700" type="line"/>
      <point x="292" y="0" type="line"/>
      <point x="428" y="0" type="line"/>
      <point x="664" y="590" type="line"/>
      <point x="655" y="0" type="line"/>
      <point x="787" y="0" type="line"/>
      <point x="1046" y="700" type="line"/>
      <point x="972" y="700" type="line"/>
      <point x="752" y="74" type="line"/>
      <point x="722" y="74" type="line"/>
      <point x="729" y="685" type="line"/>
      <point x="639" y="685" type="line"/>
      <point x="391" y="74" type="line"/>
    </contour>
    <contour>
      <point x="1060" y="-230" type="line"/>
      <point x="-74" y="-230" type="line"/>
      <point x="168" y="904" type="line"/>
      <point x="1302" y="904" type="line"/>
    </contour>
    <contour>
      <point x="231" y="826" type="line"/>
      <point x="23" y="-152" type="line"/>
      <point x="997" y="-152" type="line"/>
      <point x="1205" y="826" type="line"/>
    </contour>
  </outline>
</glyph>
<glyph name="X.ss04" format="2">
  <advance width="1266"/>
  <note>
X.ss04
</note>
  <outline>
    <contour>
      <point x="493" y="700" type="line"/>
      <point x="613" y="352" type="line"/>
      <point x="324" y="0" type="line"/>
      <point x="416" y="0" type="line"/>
      <point x="640" y="287" type="line"/>
      <point x="737" y="0" type="line"/>
      <point x="815" y="0" type="line"/>
      <point x="695" y="335" type="line"/>
      <point x="989" y="700" type="line"/>
      <point x="897" y="700" type="line"/>
      <point x="669" y="404" type="line"/>
      <point x="571" y="700" type="line"/>
    </contour>
    <contour>
      <point x="30" y="207" type="curve" smooth="yes"/>
      <point x="30" y="580"/>
      <point x="347" y="938"/>
      <point x="773" y="938" type="curve" smooth="yes"/>
      <point x="1078" y="938"/>
      <point x="1272" y="747"/>
      <point x="1272" y="459" type="curve" smooth="yes"/>
      <point x="1272" y="85"/>
      <point x="948" y="-271"/>
      <point x="526" y="-271" type="curve" smooth="yes"/>
      <point x="227" y="-271"/>
      <point x="30" y="-86"/>
    </contour>
  </outline>
</glyph>
<glyph name="Y.ss04" format="2">
  <advance width="1266"/>
  <note>
Y.ss04
</note>
  <outline>
    <contour>
      <point x="491" y="700" type="line"/>
      <point x="594" y="294" type="line"/>
      <point x="531" y="0" type="line"/>
      <point x="608" y="0" type="line"/>
      <point x="670" y="294" type="line"/>
      <point x="972" y="700" type="line"/>
      <point x="882" y="700" type="line"/>
      <point x="647" y="376" type="line"/>
      <point x="566" y="700" type="line"/>
    </contour>
    <contour>
      <point x="30" y="207" type="curve" smooth="yes"/>
      <point x="30" y="580"/>
      <point x="347" y="938"/>
      <point x="773" y="938" type="curve" smooth="yes"/>
      <point x="1078" y="938"/>
      <point x="1272" y="747"/>
      <point x="1272" y="459" type="curve" smooth="yes"/>
      <point x="1272" y="85"/>
      <point x="948" y="-271"/>
      <point x="526" y="-271" type="curve" smooth="yes"/>
      <point x="227" y="-271"/>
      <point x="30" y="-86"/>
    </contour>
  </outline>
</glyph>
<glyph name="Z.ss03" format="2">
  <advance width="1269"/>
  <note>
Z.ss03
</note>
  <outline>
    <contour>
      <point x="537" y="-271" type="curve" smooth="yes"/>
      <point x="972" y="-271"/>
      <point x="1273" y="86"/>
      <point x="1273" y="453" type="curve" smooth="yes"/>
      <point x="1273" y="750"/>
      <point x="1072" y="938"/>
      <point x="766" y="938" type="curve" smooth="yes"/>
      <point x="331" y="938"/>
      <point x="31" y="581"/>
      <point x="31" y="212" type="curve" smooth="yes"/>
      <point x="31" y="-83"/>
      <point x="231" y="-271"/>
    </contour>
    <contour>
      <point x="105" y="211" type="curve" smooth="yes"/>
      <point x="105" y="540"/>
      <point x="375" y="868"/>
      <point x="763" y="868" type="curve" smooth="yes"/>
      <point x="1034" y="868"/>
      <point x="1198" y="710"/>
      <point x="1198" y="453" type="curve" smooth="yes"/>
      <point x="1198" y="136"/>
      <point x="937" y="-201"/>
      <point x="540" y="-201" type="curve" smooth="yes"/>
      <point x="269" y="-201"/>
      <point x="105" y="-44"/>
    </contour>
    <contour>
      <point x="373" y="120" type="line"/>
      <point x="346" y="0" type="line"/>
      <point x="777" y="0" type="line"/>
      <point x="792" y="70" type="line"/>
      <point x="437" y="70" type="line"/>
      <point x="442" y="95" type="line"/>
      <point x="894" y="583" type="line"/>
      <point x="921" y="700" type="line"/>
      <point x="512" y="700" type="line"/>
      <point x="497" y="632" type="line"/>
      <point x="830" y="632" type="line"/>
      <point x="824" y="607" type="line"/>
    </contour>
  </outline>
</glyph>
<glyph name="Z.ss04" format="2">
  <advance width="1266"/>
  <note>
Z.ss04
</note>
  <outline>
    <contour>
      <point x="894" y="583" type="line"/>
      <point x="921" y="700" type="line"/>
      <point x="512" y="700" type="line"/>
      <point x="497" y="632" type="line"/>
      <point x="830" y="632" type="line"/>
      <point x="824" y="607" type="line"/>
      <point x="373" y="120" type="line"/>
      <point x="346" y="0" type="line"/>
      <point x="777" y="0" type="line"/>
      <point x="792" y="70" type="line"/>
      <point x="437" y="70" type="line"/>
      <point x="442" y="95" type="line"/>
    </contour>
    <contour>
      <point x="30" y="207" type="curve" smooth="yes"/>
      <point x="30" y="580"/>
      <point x="347" y="938"/>
      <point x="773" y="938" type="curve" smooth="yes"/>
      <point x="1078" y="938"/>
      <point x="1272" y="747"/>
      <point x="1272" y="459" type="curve" smooth="yes"/>
      <point x="1272" y="85"/>
      <point x="948" y="-271"/>
      <point x="526" y="-271" type="curve" smooth="yes"/>
      <point x="227" y="-271"/>
      <point x="30" y="-86"/>
    </contour>
  </outline>
</glyph>
<glyph name="eight.tosf" format="2">
  <advance width="560"/>
  <note>
eight.pnum
</note>
  <outline>
    <contour>
      <point x="238" y="-12" type="curve" smooth="yes"/>
      <point x="373" y="-12"/>
      <point x="462" y="48"/>
      <point x="462" y="157" type="curve" smooth="yes"/>
      <point x="462" y="224"/>
      <point x="428" y="249"/>
      <point x="388" y="266" type="curve"/>
      <point x="456" y="292"/>
      <point x="496" y="330"/>
      <point x="496" y="394" type="curve" smooth="yes"/>
      <point x="496" y="473"/>
      <point x="428" y="514"/>
      <point x="323" y="514" type="curve" smooth="yes"/>
      <point x="199" y="514"/>
      <point x="114" y="458"/>
      <point x="114" y="364" type="curve" smooth="yes"/>
      <point x="114" y="313"/>
      <point x="139" y="284"/>
      <point x="176" y="267" type="curve"/>
      <point x="90" y="231"/>
      <point x="50" y="188"/>
      <point x="50" y="119" type="curve" smooth="yes"/>
      <point x="50" y="26"/>
      <point x="132" y="-12"/>
    </contour>
    <contour>
      <point x="124" y="124" type="curve" smooth="yes"/>
      <point x="124" y="186"/>
      <point x="167" y="219"/>
      <point x="232" y="235" type="curve"/>
      <point x="320" y="235" type="line"/>
      <point x="363" y="223"/>
      <point x="388" y="201"/>
      <point x="388" y="154" type="curve" smooth="yes"/>
      <point x="388" y="80"/>
      <point x="326" y="50"/>
      <point x="244" y="50" type="curve" smooth="yes"/>
      <point x="171" y="50"/>
      <point x="124" y="73"/>
    </contour>
    <contour>
      <point x="184" y="361" type="curve" smooth="yes"/>
      <point x="184" y="426"/>
      <point x="238" y="452"/>
      <point x="319" y="452" type="curve" smooth="yes"/>
      <point x="386" y="452"/>
      <point x="426" y="436"/>
      <point x="426" y="388" type="curve" smooth="yes"/>
      <point x="426" y="341"/>
      <point x="392" y="310"/>
      <point x="332" y="293" type="curve"/>
      <point x="244" y="293" type="line"/>
      <point x="205" y="306"/>
      <point x="184" y="322"/>
    </contour>
  </outline>
</glyph>
<glyph name="five.ss03" format="2">
  <advance width="1269"/>
  <note>
five.ss03
</note>
  <outline>
    <contour>
      <point x="537" y="-271" type="curve" smooth="yes"/>
      <point x="972" y="-271"/>
      <point x="1273" y="86"/>
      <point x="1273" y="453" type="curve" smooth="yes"/>
      <point x="1273" y="750"/>
      <point x="1072" y="938"/>
      <point x="766" y="938" type="curve" smooth="yes"/>
      <point x="331" y="938"/>
      <point x="31" y="581"/>
      <point x="31" y="212" type="curve" smooth="yes"/>
      <point x="31" y="-83"/>
      <point x="231" y="-271"/>
    </contour>
    <contour>
      <point x="105" y="211" type="curve" smooth="yes"/>
      <point x="105" y="540"/>
      <point x="375" y="868"/>
      <point x="763" y="868" type="curve" smooth="yes"/>
      <point x="1034" y="868"/>
      <point x="1198" y="710"/>
      <point x="1198" y="453" type="curve" smooth="yes"/>
      <point x="1198" y="136"/>
      <point x="937" y="-201"/>
      <point x="540" y="-201" type="curve" smooth="yes"/>
      <point x="269" y="-201"/>
      <point x="105" y="-44"/>
    </contour>
    <contour>
      <point x="393" y="80" type="curve"/>
      <point x="373" y="16" type="line"/>
      <point x="373" y="16"/>
      <point x="483" y="-12"/>
      <point x="575" y="-12" type="curve" smooth="yes"/>
      <point x="778" y="-12"/>
      <point x="855" y="123"/>
      <point x="855" y="246" type="curve" smooth="yes"/>
      <point x="855" y="367"/>
      <point x="780" y="416"/>
      <point x="682" y="416" type="curve" smooth="yes"/>
      <point x="597" y="416"/>
      <point x="525" y="379"/>
      <point x="525" y="379" type="curve"/>
      <point x="586" y="590" type="line"/>
      <point x="901" y="590" type="line"/>
      <point x="915" y="660" type="line"/>
      <point x="534" y="660" type="line"/>
      <point x="444" y="317" type="line"/>
      <point x="497" y="307" type="line"/>
      <point x="497" y="307"/>
      <point x="569" y="347"/>
      <point x="654" y="347" type="curve" smooth="yes"/>
      <point x="721" y="347"/>
      <point x="775" y="326"/>
      <point x="775" y="232" type="curve" smooth="yes"/>
      <point x="775" y="146"/>
      <point x="727" y="56"/>
      <point x="568" y="56" type="curve" smooth="yes"/>
      <point x="485" y="56"/>
      <point x="393" y="80"/>
    </contour>
  </outline>
</glyph>
<glyph name="five.ss05" format="2">
  <advance width="1183"/>
  <note>
five.ss05
</note>
  <outline>
    <contour>
      <point x="-78" y="-230" type="line"/>
      <point x="164" y="904" type="line"/>
      <point x="1298" y="904" type="line"/>
      <point x="1056" y="-230" type="line"/>
    </contour>
    <contour>
      <point x="227" y="826" type="line"/>
      <point x="19" y="-152" type="line"/>
      <point x="993" y="-152" type="line"/>
      <point x="1201" y="826" type="line"/>
    </contour>
    <contour>
      <point x="348" y="80" type="curve"/>
      <point x="328" y="16" type="line"/>
      <point x="328" y="16"/>
      <point x="438" y="-12"/>
      <point x="530" y="-12" type="curve" smooth="yes"/>
      <point x="733" y="-12"/>
      <point x="810" y="123"/>
      <point x="810" y="246" type="curve" smooth="yes"/>
      <point x="810" y="367"/>
      <point x="735" y="416"/>
      <point x="637" y="416" type="curve" smooth="yes"/>
      <point x="552" y="416"/>
      <point x="480" y="379"/>
      <point x="480" y="379" type="curve"/>
      <point x="541" y="590" type="line"/>
      <point x="856" y="590" type="line"/>
      <point x="870" y="660" type="line"/>
      <point x="489" y="660" type="line"/>
      <point x="399" y="317" type="line"/>
      <point x="452" y="307" type="line"/>
      <point x="452" y="307"/>
      <point x="524" y="347"/>
      <point x="609" y="347" type="curve" smooth="yes"/>
      <point x="676" y="347"/>
      <point x="730" y="326"/>
      <point x="730" y="232" type="curve" smooth="yes"/>
      <point x="730" y="146"/>
      <point x="682" y="56"/>
      <point x="523" y="56" type="curve" smooth="yes"/>
      <point x="440" y="56"/>
      <point x="348" y="80"/>
    </contour>
  </outline>
</glyph>
<glyph name="five.tosf" format="2">
  <advance width="560"/>
  <note>
five.pnum
</note>
  <outline>
    <contour>
      <point x="232" y="428" type="line"/>
      <point x="505" y="428" type="line"/>
      <point x="520" y="500" type="line"/>
      <point x="182" y="500" type="line"/>
      <point x="106" y="227" type="line"/>
      <point x="157" y="215" type="line"/>
      <point x="157" y="215"/>
      <point x="236" y="250"/>
      <point x="305" y="250" type="curve" smooth="yes"/>
      <point x="355" y="250"/>
      <point x="393" y="232"/>
      <point x="393" y="184" type="curve" smooth="yes"/>
      <point x="393" y="102"/>
      <point x="334" y="56"/>
      <point x="249" y="56" type="curve" smooth="yes"/>
      <point x="185" y="56"/>
      <point x="76" y="76"/>
      <point x="76" y="76" type="curve"/>
      <point x="54" y="12" type="line"/>
      <point x="54" y="12"/>
      <point x="166" y="-12"/>
      <point x="244" y="-12" type="curve" smooth="yes"/>
      <point x="395" y="-12"/>
      <point x="472" y="70"/>
      <point x="472" y="190" type="curve" smooth="yes"/>
      <point x="472" y="274"/>
      <point x="407" y="316"/>
      <point x="325" y="316" type="curve" smooth="yes"/>
      <point x="246" y="316"/>
      <point x="187" y="285"/>
      <point x="187" y="285" type="curve"/>
    </contour>
  </outline>
</glyph>
<glyph name="four.tosf" format="2">
  <advance width="560"/>
  <note>
four.pnum
</note>
  <outline>
    <contour>
      <point x="79" y="168" type="line"/>
      <point x="68" y="113" type="line"/>
      <point x="346" y="113" type="line"/>
      <point x="322" y="0" type="line"/>
      <point x="393" y="0" type="line"/>
      <point x="417" y="113" type="line"/>
      <point x="470" y="113" type="line"/>
      <point x="484" y="181" type="line"/>
      <point x="431" y="181" type="line"/>
      <point x="455" y="294" type="line"/>
      <point x="384" y="294" type="line"/>
      <point x="360" y="181" type="line"/>
      <point x="160" y="181" type="line"/>
      <point x="390" y="500" type="line"/>
      <point x="306" y="500" type="line"/>
    </contour>
  </outline>
</glyph>
<glyph name="nine.tosf" format="2">
  <advance width="560"/>
  <note>
nine.pnum
</note>
  <outline>
    <contour>
      <point x="83" y="63" type="curve"/>
      <point x="65" y="3" type="line"/>
      <point x="65" y="3"/>
      <point x="143" y="-12"/>
      <point x="208" y="-12" type="curve" smooth="yes"/>
      <point x="429" y="-12"/>
      <point x="488" y="189"/>
      <point x="488" y="322" type="curve" smooth="yes"/>
      <point x="488" y="453"/>
      <point x="416" y="514"/>
      <point x="307" y="514" type="curve" smooth="yes"/>
      <point x="172" y="514"/>
      <point x="90" y="423"/>
      <point x="90" y="318" type="curve" smooth="yes"/>
      <point x="90" y="232"/>
      <point x="149" y="187"/>
      <point x="239" y="187" type="curve" smooth="yes"/>
      <point x="300" y="187"/>
      <point x="355" y="206"/>
      <point x="398" y="224" type="curve"/>
      <point x="371" y="92"/>
      <point x="315" y="51"/>
      <point x="221" y="51" type="curve" smooth="yes"/>
      <point x="168" y="51"/>
      <point x="83" y="63"/>
    </contour>
    <contour>
      <point x="167" y="326" type="curve" smooth="yes"/>
      <point x="167" y="395"/>
      <point x="213" y="451"/>
      <point x="302" y="451" type="curve" smooth="yes"/>
      <point x="397" y="451"/>
      <point x="428" y="384"/>
      <point x="411" y="284" type="curve"/>
      <point x="411" y="284"/>
      <point x="336" y="251"/>
      <point x="263" y="251" type="curve" smooth="yes"/>
      <point x="206" y="251"/>
      <point x="167" y="269"/>
    </contour>
  </outline>
</glyph>
<glyph name="one.ss05" format="2">
  <advance width="1183"/>
  <note>
one.ss05
</note>
  <outline>
    <contour>
      <point x="-78" y="-230" type="line"/>
      <point x="164" y="904" type="line"/>
      <point x="1298" y="904" type="line"/>
      <point x="1056" y="-230" type="line"/>
    </contour>
    <contour>
      <point x="227" y="826" type="line"/>
      <point x="19" y="-152" type="line"/>
      <point x="993" y="-152" type="line"/>
      <point x="1201" y="826" type="line"/>
    </contour>
    <contour>
      <point x="678" y="660" type="line"/>
      <point x="442" y="520" type="line"/>
      <point x="467" y="459" type="line"/>
      <point x="652" y="567" type="line"/>
      <point x="532" y="0" type="line"/>
      <point x="606" y="0" type="line"/>
      <point x="745" y="660" type="line"/>
    </contour>
  </outline>
</glyph>
<glyph name="one.ss06" format="2">
  <advance width="1183"/>
  <note>
one.ss06
</note>
  <outline>
    <contour>
      <point x="-78" y="-230" type="line"/>
      <point x="164" y="904" type="line"/>
      <point x="1298" y="904" type="line"/>
      <point x="1056" y="-230" type="line"/>
    </contour>
    <contour>
      <point x="678" y="660" type="line"/>
      <point x="442" y="520" type="line"/>
      <point x="467" y="459" type="line"/>
      <point x="652" y="567" type="line"/>
      <point x="532" y="0" type="line"/>
      <point x="606" y="0" type="line"/>
      <point x="745" y="660" type="line"/>
    </contour>
  </outline>
</glyph>
<glyph name="one.tf" format="2">
  <advance width="560"/>
  <note>
one.tf
</note>
  <outline>
    <contour>
      <point x="328" y="567" type="line"/>
      <point x="208" y="0" type="line"/>
      <point x="282" y="0" type="line"/>
      <point x="421" y="660" type="line"/>
      <point x="353" y="660" type="line"/>
      <point x="118" y="520" type="line"/>
      <point x="143" y="459" type="line"/>
    </contour>
  </outline>
</glyph>
<glyph name="one.tosf" format="2">
  <advance width="560"/>
  <note>
one.pnum
</note>
  <outline>
    <contour>
      <point x="317" y="0" type="line"/>
      <point x="423" y="500" type="line"/>
      <point x="359" y="500" type="line"/>
      <point x="146" y="386" type="line"/>
      <point x="163" y="329" type="line"/>
      <point x="334" y="419" type="line"/>
      <point x="245" y="0" type="line"/>
    </contour>
  </outline>
</glyph>
<glyph name="seven.osf" format="2">
  <advance width="406"/>
  <note>
seven.pnum
</note>
  <outline>
    <contour>
      <point x="404" y="415" type="line"/>
      <point x="422" y="500" type="line"/>
      <point x="79" y="500" type="line"/>
      <point x="65" y="436" type="line"/>
      <point x="340" y="436" type="line"/>
      <point x="336" y="416" type="line"/>
      <point x="43" y="9" type="line"/>
      <point x="96" y="-19" type="line"/>
    </contour>
  </outline>
</glyph>
<glyph name="seven.tosf" format="2">
  <advance width="560"/>
  <note>
seven.pnum
</note>
  <outline>
    <contour>
      <point x="484" y="415" type="line"/>
      <point x="502" y="500" type="line"/>
      <point x="159" y="500" type="line"/>
      <point x="145" y="436" type="line"/>
      <point x="420" y="436" type="line"/>
      <point x="416" y="416" type="line"/>
      <point x="123" y="9" type="line"/>
      <point x="176" y="-19" type="line"/>
    </contour>
  </outline>
</glyph>
<glyph name="six.ss05" format="2">
  <advance width="1183"/>
  <note>
six.ss05
</note>
  <outline>
    <contour>
      <point x="-78" y="-230" type="line"/>
      <point x="164" y="904" type="line"/>
      <point x="1298" y="904" type="line"/>
      <point x="1056" y="-230" type="line"/>
    </contour>
    <contour>
      <point x="227" y="826" type="line"/>
      <point x="19" y="-152" type="line"/>
      <point x="993" y="-152" type="line"/>
      <point x="1201" y="826" type="line"/>
    </contour>
    <contour>
      <point x="361" y="224" type="curve" smooth="yes"/>
      <point x="361" y="73"/>
      <point x="437" y="-12"/>
      <point x="571" y="-12" type="curve" smooth="yes"/>
      <point x="736" y="-12"/>
      <point x="817" y="112"/>
      <point x="817" y="240" type="curve" smooth="yes"/>
      <point x="817" y="357"/>
      <point x="747" y="413"/>
      <point x="643" y="413" type="curve" smooth="yes"/>
      <point x="556" y="413"/>
      <point x="462" y="372"/>
      <point x="462" y="372" type="curve"/>
      <point x="495" y="510"/>
      <point x="577" y="602"/>
      <point x="718" y="602" type="curve" smooth="yes"/>
      <point x="772" y="602"/>
      <point x="857" y="590"/>
      <point x="857" y="590" type="curve"/>
      <point x="878" y="653" type="line"/>
      <point x="878" y="653"/>
      <point x="786" y="670"/>
      <point x="717" y="670" type="curve" smooth="yes"/>
      <point x="492" y="670"/>
      <point x="361" y="462"/>
    </contour>
    <contour>
      <point x="439" y="211" type="curve" smooth="yes"/>
      <point x="439" y="249"/>
      <point x="445" y="288"/>
      <point x="451" y="316" type="curve"/>
      <point x="451" y="316"/>
      <point x="542" y="344"/>
      <point x="618" y="344" type="curve" smooth="yes"/>
      <point x="693" y="344"/>
      <point x="737" y="308"/>
      <point x="737" y="229" type="curve" smooth="yes"/>
      <point x="737" y="136"/>
      <point x="682" y="56"/>
      <point x="575" y="56" type="curve" smooth="yes"/>
      <point x="484" y="56"/>
      <point x="439" y="116"/>
    </contour>
  </outline>
</glyph>
<glyph name="six.tosf" format="2">
  <advance width="560"/>
  <note>
six.pnum
</note>
  <outline>
    <contour>
      <point x="496" y="439" type="curve"/>
      <point x="514" y="499" type="line"/>
      <point x="514" y="499"/>
      <point x="436" y="514"/>
      <point x="371" y="514" type="curve" smooth="yes"/>
      <point x="150" y="514"/>
      <point x="81" y="313"/>
      <point x="81" y="180" type="curve" smooth="yes"/>
      <point x="81" y="49"/>
      <point x="153" y="-12"/>
      <point x="262" y="-12" type="curve" smooth="yes"/>
      <point x="397" y="-12"/>
      <point x="479" y="79"/>
      <point x="479" y="184" type="curve" smooth="yes"/>
      <point x="479" y="270"/>
      <point x="420" y="315"/>
      <point x="330" y="315" type="curve" smooth="yes"/>
      <point x="269" y="315"/>
      <point x="214" y="296"/>
      <point x="171" y="278" type="curve"/>
      <point x="198" y="410"/>
      <point x="264" y="451"/>
      <point x="358" y="451" type="curve" smooth="yes"/>
      <point x="411" y="451"/>
      <point x="496" y="439"/>
    </contour>
    <contour>
      <point x="158" y="218" type="curve"/>
      <point x="158" y="218"/>
      <point x="233" y="251"/>
      <point x="306" y="251" type="curve" smooth="yes"/>
      <point x="363" y="251"/>
      <point x="402" y="233"/>
      <point x="402" y="176" type="curve" smooth="yes"/>
      <point x="402" y="107"/>
      <point x="356" y="51"/>
      <point x="267" y="51" type="curve" smooth="yes"/>
      <point x="172" y="51"/>
      <point x="141" y="118"/>
    </contour>
  </outline>
</glyph>
<glyph name="three.tosf" format="2">
  <advance width="560"/>
  <note>
three.pnum
</note>
  <outline>
    <contour>
      <point x="152" y="496" type="curve"/>
      <point x="146" y="432" type="line"/>
      <point x="146" y="432"/>
      <point x="242" y="447"/>
      <point x="323" y="447" type="curve" smooth="yes"/>
      <point x="383" y="447"/>
      <point x="417" y="430"/>
      <point x="417" y="387" type="curve" smooth="yes"/>
      <point x="417" y="331"/>
      <point x="364" y="296"/>
      <point x="298" y="296" type="curve" smooth="yes"/>
      <point x="173" y="296" type="line"/>
      <point x="159" y="233" type="line"/>
      <point x="285" y="233" type="line"/>
      <point x="344" y="230"/>
      <point x="384" y="219"/>
      <point x="384" y="165" type="curve" smooth="yes"/>
      <point x="384" y="93"/>
      <point x="326" y="58"/>
      <point x="247" y="57" type="curve" smooth="yes"/>
      <point x="166" y="57"/>
      <point x="66" y="75"/>
      <point x="66" y="75" type="curve"/>
      <point x="43" y="11" type="line"/>
      <point x="43" y="11"/>
      <point x="150" y="-12"/>
      <point x="233" y="-12" type="curve" smooth="yes"/>
      <point x="372" y="-12"/>
      <point x="456" y="55"/>
      <point x="456" y="168" type="curve" smooth="yes"/>
      <point x="456" y="230"/>
      <point x="421" y="262"/>
      <point x="379" y="271" type="curve"/>
      <point x="453" y="296"/>
      <point x="492" y="331"/>
      <point x="492" y="406" type="curve" smooth="yes"/>
      <point x="492" y="474"/>
      <point x="434" y="514"/>
      <point x="336" y="514" type="curve" smooth="yes"/>
      <point x="260" y="514"/>
      <point x="152" y="496"/>
    </contour>
  </outline>
</glyph>
<glyph name="two.tosf" format="2">
  <advance width="560"/>
  <note>
two.pnum
</note>
  <outline>
    <contour>
      <point x="268" y="212" type="curve" smooth="yes"/>
      <point x="59" y="63" type="line"/>
      <point x="46" y="0" type="line"/>
      <point x="417" y="0" type="line"/>
      <point x="431" y="65" type="line"/>
      <point x="159" y="65" type="line"/>
      <point x="310" y="174" type="line" smooth="yes"/>
      <point x="407" y="244"/>
      <point x="486" y="289"/>
      <point x="486" y="395" type="curve" smooth="yes"/>
      <point x="486" y="470"/>
      <point x="428" y="514"/>
      <point x="336" y="514" type="curve" smooth="yes"/>
      <point x="259" y="514"/>
      <point x="149" y="493"/>
      <point x="149" y="493" type="curve"/>
      <point x="141" y="429" type="line"/>
      <point x="141" y="429"/>
      <point x="242" y="447"/>
      <point x="308" y="447" type="curve" smooth="yes"/>
      <point x="368" y="447"/>
      <point x="408" y="430"/>
      <point x="408" y="385" type="curve" smooth="yes"/>
      <point x="408" y="311"/>
      <point x="330" y="256"/>
    </contour>
  </outline>
</glyph>
<glyph name="uni013C.ss02" format="2">
  <advance width="220"/>
  <note>
uni013C.ss02
</note>
  <outline>
    <contour>
      <point x="174" y="730" type="line"/>
      <point x="20" y="0" type="line"/>
      <point x="94" y="0" type="line"/>
      <point x="248" y="730" type="line"/>
    </contour>
    <contour>
      <point x="40" y="-77" type="line"/>
      <point x="-48" y="-221" type="line"/>
      <point x="-4" y="-252" type="line"/>
      <point x="98" y="-120" type="line"/>
    </contour>
  </outline>
</glyph>
<glyph name="uni0302.case" format="2">
  <advance width="0"/>
  <note>
uni0302.case
</note>
  <outline>
    <contour>
      <point x="112" y="776" type="line"/>
      <point x="193" y="776" type="line"/>
      <point x="287" y="864" type="line"/>
      <point x="343" y="776" type="line"/>
      <point x="412" y="776" type="line"/>
      <point x="328" y="915" type="line"/>
      <point x="256" y="915" type="line"/>
    </contour>
  </outline>
</glyph>
<glyph name="uni0304.case" format="2">
  <advance width="0"/>
  <note>
uni0304.case
</note>
  <outline>
    <contour>
      <point x="393" y="804" type="line"/>
      <point x="405" y="863" type="line"/>
      <point x="130" y="863" type="line"/>
      <point x="118" y="804" type="line"/>
    </contour>
  </outline>
</glyph>
<glyph name="uni0307.case" format="2">
  <advance width="0"/>
  <note>
uni0307.case
</note>
  <outline>
    <contour>
      <point x="191" y="804" type="line"/>
      <point x="212" y="900" type="line"/>
      <point x="138" y="900" type="line"/>
      <point x="118" y="804" type="line"/>
    </contour>
  </outline>
</glyph>
<glyph name="uni0307.i" format="2">
  <advance width="0"/>
  <note>
uni0307.i
</note>
  <outline>
    <contour>
      <point x="148" y="603" type="line"/>
      <point x="169" y="700" type="line"/>
      <point x="96" y="700" type="line"/>
      <point x="75" y="603" type="line"/>
    </contour>
  </outline>
</glyph>
<glyph name="uni0308.case" format="2">
  <advance width="0"/>
  <note>
uni0308.case
</note>
  <outline>
    <contour>
      <point x="190" y="804" type="line"/>
      <point x="208" y="891" type="line"/>
      <point x="136" y="891" type="line"/>
      <point x="118" y="804" type="line"/>
    </contour>
    <contour>
      <point x="336" y="891" type="line"/>
      <point x="318" y="804" type="line"/>
      <point x="391" y="804" type="line"/>
      <point x="409" y="891" type="line"/>
    </contour>
  </outline>
</glyph>
<glyph name="uni030C.case" format="2">
  <advance width="0"/>
  <note>
uni030C.case
</note>
  <outline>
    <contour>
      <point x="441" y="915" type="line"/>
      <point x="360" y="915" type="line"/>
      <point x="266" y="829" type="line"/>
      <point x="210" y="915" type="line"/>
      <point x="141" y="915" type="line"/>
      <point x="225" y="776" type="line"/>
      <point x="297" y="776" type="line"/>
    </contour>
  </outline>
</glyph>
<glyph name="uni0312.case" format="2">
  <advance width="0"/>
  <note>
uni0312.case
</note>
  <outline>
    <contour>
      <point x="246" y="920" type="line"/>
      <point x="111" y="809" type="line"/>
      <point x="156" y="771" type="line"/>
      <point x="276" y="889" type="line"/>
    </contour>
  </outline>
</glyph>
<glyph name="uni0335.case" format="2">
  <advance width="0"/>
  <note>
uni0335.case
</note>
  <outline>
    <contour>
      <point x="330" y="321" type="line"/>
      <point x="344" y="389" type="line"/>
      <point x="7" y="389" type="line"/>
      <point x="-7" y="321" type="line"/>
    </contour>
  </outline>
</glyph>
<glyph name="uni1E37.ss02" format="2">
  <advance width="220"/>
  <note>
uni1E37.ss02
</note>
  <outline>
    <contour>
      <point x="174" y="730" type="line"/>
      <point x="20" y="0" type="line"/>
      <point x="94" y="0" type="line"/>
      <point x="248" y="730" type="line"/>
    </contour>
    <contour>
      <point x="8" y="-82" type="line"/>
      <point x="-13" y="-178" type="line"/>
      <point x="61" y="-178" type="line"/>
      <point x="81" y="-82" type="line"/>
    </contour>
  </outline>
</glyph>
<glyph name="zero.ss03" format="2">
  <advance width="1269"/>
  <note>
zero.ss03
</note>
  <outline>
    <contour>
      <point x="537" y="-271" type="curve" smooth="yes"/>
      <point x="972" y="-271"/>
      <point x="1273" y="86"/>
      <point x="1273" y="453" type="curve" smooth="yes"/>
      <point x="1273" y="750"/>
      <point x="1072" y="938"/>
      <point x="766" y="938" type="curve" smooth="yes"/>
      <point x="331" y="938"/>
      <point x="31" y="581"/>
      <point x="31" y="212" type="curve" smooth="yes"/>
      <point x="31" y="-83"/>
      <point x="231" y="-271"/>
    </contour>
    <contour>
      <point x="105" y="211" type="curve" smooth="yes"/>
      <point x="105" y="540"/>
      <point x="375" y="868"/>
      <point x="763" y="868" type="curve" smooth="yes"/>
      <point x="1034" y="868"/>
      <point x="1198" y="710"/>
      <point x="1198" y="453" type="curve" smooth="yes"/>
      <point x="1198" y="136"/>
      <point x="937" y="-201"/>
      <point x="540" y="-201" type="curve" smooth="yes"/>
      <point x="269" y="-201"/>
      <point x="105" y="-44"/>
    </contour>
    <contour>
      <point x="397" y="194" type="curve" smooth="yes"/>
      <point x="397" y="51"/>
      <point x="467" y="-12"/>
      <point x="583" y="-12" type="curve" smooth="yes"/>
      <point x="830" y="-12"/>
      <point x="900" y="303"/>
      <point x="900" y="465" type="curve" smooth="yes"/>
      <point x="900" y="615"/>
      <point x="822" y="670"/>
      <point x="711" y="670" type="curve" smooth="yes"/>
      <point x="461" y="670"/>
      <point x="397" y="342"/>
    </contour>
    <contour>
      <point x="477" y="196" type="curve" smooth="yes"/>
      <point x="477" y="298"/>
      <point x="519" y="601"/>
      <point x="707" y="601" type="curve" smooth="yes"/>
      <point x="779" y="601"/>
      <point x="820" y="570"/>
      <point x="820" y="462" type="curve" smooth="yes"/>
      <point x="820" y="339"/>
      <point x="767" y="56"/>
      <point x="591" y="56" type="curve" smooth="yes"/>
      <point x="521" y="56"/>
      <point x="477" y="87"/>
    </contour>
  </outline>
</glyph>
<glyph name="zero.ss06" format="2">
  <advance width="1183"/>
  <note>
zero.ss06
</note>
  <outline>
    <contour>
      <point x="-78" y="-230" type="line"/>
      <point x="164" y="904" type="line"/>
      <point x="1298" y="904" type="line"/>
      <point x="1056" y="-230" type="line"/>
    </contour>
    <contour>
      <point x="357" y="194" type="curve" smooth="yes"/>
      <point x="357" y="51"/>
      <point x="427" y="-12"/>
      <point x="543" y="-12" type="curve" smooth="yes"/>
      <point x="790" y="-12"/>
      <point x="860" y="303"/>
      <point x="860" y="465" type="curve" smooth="yes"/>
      <point x="860" y="615"/>
      <point x="782" y="670"/>
      <point x="671" y="670" type="curve" smooth="yes"/>
      <point x="421" y="670"/>
      <point x="357" y="342"/>
    </contour>
    <contour>
      <point x="437" y="196" type="curve" smooth="yes"/>
      <point x="437" y="298"/>
      <point x="479" y="601"/>
      <point x="667" y="601" type="curve" smooth="yes"/>
      <point x="739" y="601"/>
      <point x="780" y="570"/>
      <point x="780" y="462" type="curve" smooth="yes"/>
      <point x="780" y="339"/>
      <point x="727" y="56"/>
      <point x="551" y="56" type="curve" smooth="yes"/>
      <point x="481" y="56"/>
      <point x="437" y="87"/>
    </contour>
  </outline>
</glyph>
<glyph name="zero.tosf" format="2">
  <advance width="560"/>
  <note>
zero.pnum
</note>
  <outline>
    <contour>
      <point x="329" y="514" type="curve" smooth="yes"/>
      <point x="108" y="514"/>
      <point x="56" y="283"/>
      <point x="56" y="154" type="curve" smooth="yes"/>
      <point x="56" y="38"/>
      <point x="125" y="-12"/>
      <point x="231" y="-12" type="curve" smooth="yes"/>
      <point x="451" y="-12"/>
      <point x="504" y="220"/>
      <point x="504" y="346" type="curve" smooth="yes"/>
      <point x="504" y="460"/>
      <point x="438" y="514"/>
    </contour>
    <contour>
      <point x="128" y="159" type="curve" smooth="yes"/>
      <point x="128" y="253"/>
      <point x="170" y="449"/>
      <point x="321" y="449" type="curve" smooth="yes"/>
      <point x="393" y="449"/>
      <point x="431" y="420"/>
      <point x="431" y="341" type="curve" smooth="yes"/>
      <point x="431" y="248"/>
      <point x="390" y="53"/>
      <point x="238" y="53" type="curve" smooth="yes"/>
      <point x="166" y="53"/>
      <point x="128" y="82"/>
    </contour>
  </outline>
</glyph>
